<?xml version="1.0" encoding="utf-8"?>
<!-- Generator: Adobe Illustrator 22.0.1, SVG Export Plug-In . SVG Version: 6.00 Build 0)  -->
<svg version="1.1" xmlns="http://www.w3.org/2000/svg" xmlns:xlink="http://www.w3.org/1999/xlink" x="0px" y="0px"
	 viewBox="0 0 400 400" style="enable-background:new 0 0 400 400;" xml:space="preserve">
<style type="text/css">
	.st0{display:none;}
	.st1{display:inline;}
	.st2{fill:#DDDDDD;}
	.st3{fill:#FFFFFF;}
</style>
<g id="레이어_4" class="st0">
	<g class="st1">
		<path class="st2" d="M284.7,319.1h-45.9c-2.3,0-4.1-1.8-4.1-4.1s1.8-4.1,4.1-4.1h45.9c2.3,0,4.1,1.8,4.1,4.1
			S287,319.1,284.7,319.1z"/>
		<path class="st2" d="M160,319.1h-51.9c-2.3,0-4.1-1.8-4.1-4.1s1.8-4.1,4.1-4.1H160c2.3,0,4.1,1.8,4.1,4.1S162.3,319.1,160,319.1z"
			/>
		<path class="st2" d="M232.6,209.3h-17.7c-2.3,0-4.1-1.8-4.1-4.1c0-2.3,1.8-4.1,4.1-4.1h17.7c14.3,0,25.9-11.6,25.9-25.9v-23.6
			c-1.4-13.9-17.5-24-25.2-28.9c-2.1-1.3-3.3-2.1-4.2-2.9c-5.6-4-8.4-5.9-8.4-6c-1.9-1.3-2.4-3.8-1.1-5.7c1.3-1.9,3.8-2.4,5.7-1.1
			c0,0,2.9,2,9,6.4c0.7,0.6,2.1,1.5,3.4,2.3c8.1,5.1,27.2,17.1,29.1,35.4l0,24C266.8,194,251.5,209.3,232.6,209.3z"/>
		<path class="st2" d="M211.4,168.7H173c-7.6,0-13.9-6.2-13.9-13.9S165.3,141,173,141h26.9c2.3,0,4.1,1.8,4.1,4.1s-1.8,4.1-4.1,4.1
			H173c-3.1,0-5.6,2.5-5.6,5.6s2.5,5.6,5.6,5.6h38.4c3.1,0,5.6-2.5,5.6-5.6c0-2.3,1.8-4.1,4.1-4.1s4.1,1.8,4.1,4.1
			C225.3,162.4,219.1,168.7,211.4,168.7z"/>
		<path class="st2" d="M211.3,190.2H171c-6.5,0-11.9-6.3-11.9-13.9c0-7.4,5.6-13.9,11.9-13.9h40.3c6.7,0,11.9,7.4,11.9,13.9
			C223.2,182.7,218,190.2,211.3,190.2z M171,170.7c-1.6,0-3.7,2.7-3.7,5.6c0,3,2.1,5.6,3.7,5.6h40.3c1.4,0,3.7-3.1,3.7-5.6
			s-2.3-5.6-3.7-5.6H171z"/>
		<path class="st2" d="M199.9,147.1h-23.4c-7.6,0-13.9-6.2-13.9-13.9s6.2-13.9,13.9-13.9h23.4c2.3,0,4.1,1.8,4.1,4.1
			s-1.8,4.1-4.1,4.1h-23.4c-3.1,0-5.6,2.5-5.6,5.6s2.5,5.6,5.6,5.6h23.4c2.3,0,4.1,1.8,4.1,4.1S202.1,147.1,199.9,147.1z"/>
		<path class="st2" d="M212.8,154.7h-2.4c-7.9,0-14.3-6.2-14.3-13.9v-23.4c0-7.6,6.4-13.9,14.3-13.9h2.4c4.2,0,9.3,1.4,12.4,3.3
			c1.9,1.2,2.5,3.8,1.3,5.7c-1.2,1.9-3.8,2.5-5.7,1.3c-1.7-1.1-5.3-2-7.9-2h-2.4c-3.3,0-6.1,2.5-6.1,5.6v23.4c0,3.1,2.7,5.6,6.1,5.6
			h2.4c3.3,0,6.1-2.5,6.1-5.6V131c0-2.3,1.8-4.1,4.1-4.1s4.1,1.8,4.1,4.1v9.9C227.1,148.5,220.7,154.7,212.8,154.7z"/>
		<path class="st2" d="M201.2,351.8h-4.4c-7.2,0-31.7-4-46.3-55.9c-2.7-9.6-1.9-41-1.8-44.5c0-22.7,12.2-47.2,31.9-47.2
			c2.3,0,4.1,1.8,4.1,4.1c0,2.3-1.8,4.1-4.1,4.1c-14.2,0-23.7,20.2-23.7,39.1c-0.3,9.4-0.5,35,1.5,42.2
			c10.3,36.8,26.6,49.9,38.4,49.9h4.4c9.7,0,32.2-19.5,39.7-51.4c1.6-7,1.7-31.7,1.6-40.6c0-19.2-10.1-39.9-26.5-39.9
			c-2.3,0-4.1-1.8-4.1-4.1s1.8-4.1,4.1-4.1c21.7,0,34.7,24.4,34.7,48c0,1.3,0.4,33.1-1.8,42.5C241.2,326.5,217,351.8,201.2,351.8z"
			/>
		<g>
			<path class="st2" d="M165.8,127.9c-1,0-2.1-0.4-2.9-1.2c-3-2.9-5.8-5.3-8.1-7c-7.9-5.8-11.6-11.4-14.1-21.5
				c-2.4-9.9-0.6-22.9,8.9-29.9c4.7-3.5,13.3-4.1,19.7,0.7c1.8,1.4,2.1,4,0.8,5.8c-1.4,1.8-4,2.1-5.8,0.8c-3.5-2.7-8.1-1.8-9.8-0.6
				c-6.4,4.7-7.5,14.4-5.8,21.4c2,8.2,4.6,12.1,11,16.8c2.7,2,5.7,4.6,9,7.7c1.6,1.6,1.7,4.2,0.1,5.8
				C168,127.5,166.9,127.9,165.8,127.9z"/>
			<path class="st2" d="M196.7,104.4c-0.2,0-0.5,0-0.7-0.1c-2.2-0.4-3.7-2.5-3.3-4.8c0.7-3.8,0.6-7.9-0.2-12.5
				c-1-5.2-4.1-14.1-14.1-15.9c-2.5-0.5-6.7,0.9-7.8,3c-1,2-3.5,2.8-5.5,1.8c-2-1-2.8-3.5-1.8-5.5c3-5.9,11-8.4,16.6-7.4
				c10.8,2,18.4,10.2,20.7,22.5c1,5.6,1.1,10.6,0.2,15.5C200.4,103,198.6,104.4,196.7,104.4z"/>
		</g>
		<g>
			<path class="st2" d="M197.2,66.7c-0.8,0-1.5-0.2-2.2-0.6c-1.9-1.2-2.5-3.8-1.2-5.7c2.7-4.2,6.3-7.1,10.6-8.7
				c5.2-1.8,13.2-0.1,17.5,6c1.3,1.8,0.9,4.4-0.9,5.7c-1.8,1.3-4.4,0.9-5.7-0.9c-2.2-3.1-6.5-3.6-8.1-3c-2.5,0.9-4.7,2.7-6.4,5.3
				C199.9,66,198.6,66.7,197.2,66.7z"/>
			<path class="st2" d="M224.2,114.5c-0.3,0-0.6,0-1-0.1c-2.2-0.5-3.6-2.7-3-5c1.3-5.3,4.4-8.9,7.3-11.6c5.6-5.4,8.8-9.7,9.6-16.8
				c0.2-2.3,1-13.7-8.3-18.5c-2.2-1.2-6-0.9-7.3,0.5c-1.6,1.6-4.2,1.7-5.8,0.1c-1.6-1.6-1.7-4.2-0.1-5.8c4.3-4.5,12.2-4.6,17-2.1
				c10.9,5.6,13.8,17.5,12.7,26.7c-1,9.5-5.4,15.4-12.1,21.8c-2.5,2.4-4.3,4.6-5,7.6C227.8,113.2,226.1,114.5,224.2,114.5z"/>
		</g>
		<path class="st2" d="M172.6,110c-1.9,0-3.7-1.4-4-3.4l-3.2-17.8c-0.4-2.2,1.1-4.4,3.3-4.8c2.2-0.4,4.4,1.1,4.8,3.3l3.2,17.8
			c0.4,2.2-1.1,4.4-3.3,4.8C173.1,110,172.8,110,172.6,110z"/>
		<path class="st2" d="M214.7,91.8c-0.2,0-0.4,0-0.7-0.1c-2.2-0.4-3.8-2.5-3.4-4.7l2-12c0.4-2.2,2.5-3.8,4.7-3.4
			c2.2,0.4,3.8,2.5,3.4,4.7l-2,12C218.4,90.3,216.7,91.8,214.7,91.8z"/>
		<path class="st2" d="M208.7,211.7h-30.6c-6.8,0-11.9-6.9-11.9-13.1v-1.5c0-6.2,5.1-13.1,11.9-13.1h30.6c6.7,0,11.9,7.4,11.9,13.9
			S215.4,211.7,208.7,211.7z M178.1,192.2c-1.7,0-3.7,2.6-3.7,4.9v1.5c0,2.3,2,4.9,3.7,4.9h30.6c1.4,0,3.7-3.1,3.7-5.6
			s-2.3-5.6-3.7-5.6H178.1z"/>
		<g>
			<line class="st3" x1="174.6" y1="251.5" x2="152.7" y2="251.5"/>
			<path class="st2" d="M174.6,255.6h-21.9c-2.3,0-4.1-1.8-4.1-4.1s1.8-4.1,4.1-4.1h21.9c2.3,0,4.1,1.8,4.1,4.1
				S176.9,255.6,174.6,255.6z"/>
		</g>
		<path class="st2" d="M183.3,276.1h-30.6c-2.3,0-4.1-1.8-4.1-4.1s1.8-4.1,4.1-4.1h30.6c2.3,0,4.1,1.8,4.1,4.1
			S185.6,276.1,183.3,276.1z"/>
		<g>
			<line class="st3" x1="215.4" y1="320" x2="232.4" y2="320"/>
			<path class="st2" d="M232.4,324.1h-17.1c-2.3,0-4.1-1.8-4.1-4.1s1.8-4.1,4.1-4.1h17.1c2.3,0,4.1,1.8,4.1,4.1
				S234.7,324.1,232.4,324.1z"/>
		</g>
		<g>
			<line class="st3" x1="209.1" y1="299.9" x2="239.7" y2="299.9"/>
			<path class="st2" d="M239.7,304h-30.6c-2.3,0-4.1-1.8-4.1-4.1s1.8-4.1,4.1-4.1h30.6c2.3,0,4.1,1.8,4.1,4.1S241.9,304,239.7,304z"
				/>
		</g>
		<path class="st2" d="M125.1,179.9c-2.3,0-4.1-1.8-4.1-4.1v-20.5c0-2.3,1.8-4.1,4.1-4.1s4.1,1.8,4.1,4.1v20.5
			C129.2,178,127.4,179.9,125.1,179.9z"/>
		<path class="st2" d="M140.3,196.1c-2.3,0-4.1-1.8-4.1-4.1v-23c0-2.3,1.8-4.1,4.1-4.1s4.1,1.8,4.1,4.1v23
			C144.4,194.3,142.6,196.1,140.3,196.1z"/>
		<path class="st2" d="M262.5,296.1c-2.3,0-4.1-1.8-4.1-4.1v-16.4c0-2.3,1.8-4.1,4.1-4.1c2.3,0,4.1,1.8,4.1,4.1V292
			C266.6,294.3,264.8,296.1,262.5,296.1z"/>
		<path class="st2" d="M276.2,278.4c-2.3,0-4.1-1.8-4.1-4.1v-21.4c0-2.3,1.8-4.1,4.1-4.1s4.1,1.8,4.1,4.1v21.4
			C280.3,276.5,278.5,278.4,276.2,278.4z"/>
		<path class="st2" d="M110.8,234.7H91.4c-2.3,0-4.1-1.8-4.1-4.1c0-2.3,1.8-4.1,4.1-4.1h19.4c2.3,0,4.1,1.8,4.1,4.1
			C114.9,232.8,113.1,234.7,110.8,234.7z"/>
		<path class="st2" d="M101.1,248.3c-2.3,0-4.1-1.8-4.1-4.1v-25.6c0-2.3,1.8-4.1,4.1-4.1s4.1,1.8,4.1,4.1v25.6
			C105.2,246.5,103.4,248.3,101.1,248.3z"/>
		<path class="st2" d="M310.5,189.3h-19.4c-2.3,0-4.1-1.8-4.1-4.1s1.8-4.1,4.1-4.1h19.4c2.3,0,4.1,1.8,4.1,4.1
			S312.8,189.3,310.5,189.3z"/>
		<path class="st2" d="M300.8,203c-2.3,0-4.1-1.8-4.1-4.1v-25.6c0-2.3,1.8-4.1,4.1-4.1s4.1,1.8,4.1,4.1v25.6
			C304.9,201.1,303.1,203,300.8,203z"/>
	</g>
</g>
<g id="레이어_2" class="st0">
	<g class="st1">
		<path class="st2" d="M288.5,349.8H112.2c-2.2,0-4-1.8-4-4v-104c0-2.2,1.8-4,4-4s4,1.8,4,4v100h168.2V226.2c0-2.2,1.8-4,4-4
			s4,1.8,4,4v119.5C292.6,347.9,290.7,349.8,288.5,349.8z"/>
		<path class="st2" d="M300.4,230.2h-74.1c-2.2,0-4-1.8-4-4s1.8-4,4-4h70v-57.3h-192v57.3h50.1c2.2,0,4,1.8,4,4s-1.8,4-4,4h-54.1
			c-2.2,0-4-1.8-4-4v-65.4c0-2.2,1.8-4,4-4h200.1c2.2,0,4,1.8,4,4v65.4C304.5,228.4,302.6,230.2,300.4,230.2z"/>
		<path class="st2" d="M226.3,349.8h-51.9c-2.2,0-4-1.8-4-4v-185c0-2.2,1.8-4,4-4h51.9c2.2,0,4,1.8,4,4v185
			C230.4,347.9,228.6,349.8,226.3,349.8z M178.4,341.7h43.8V164.8h-43.8V341.7z"/>
		<path class="st2" d="M143.8,164.8c-9.9,0-18-6.7-20.1-16.6c-1.8-8.2,0.8-19.9,14-25.9c2-0.9,4.4,0,5.4,2c0.9,2,0,4.4-2,5.4
			c-8.8,4-10.7,11.3-9.5,16.8c1.1,5.1,5.3,10.3,12.2,10.3c2.2,0,4,1.8,4,4C147.8,163,146,164.8,143.8,164.8z"/>
		<path class="st2" d="M200.4,161.9c-2,0-3.7-1.5-4-3.5c-0.2-1.3-4.6-30.9-38.5-31.6c-2.2,0-4-1.9-4-4.1c0-2.2,1.7-4,4.1-4
			c41,0.9,46.3,38.2,46.4,38.6c0.3,2.2-1.3,4.3-3.5,4.5C200.7,161.9,200.5,161.9,200.4,161.9z"/>
		<path class="st2" d="M256.9,164.8c-2.2,0-4-1.8-4-4c0-2.2,1.8-4,4-4c7.9,0,12.5-6.8,12.5-13.3c0-4.2-1.9-8.1-5.3-11
			c-4.4-3.7-11.2-5.6-19.8-5.6c-35.3,0-39.8,30.3-40,31.6c-0.3,2.2-2.4,3.7-4.6,3.5c-2.2-0.3-3.8-2.3-3.5-4.5
			c0.1-0.4,5.6-38.6,48-38.6c10.5,0,19.1,2.6,25,7.5c5.3,4.4,8.2,10.5,8.2,17.2C277.6,153.9,269.8,164.8,256.9,164.8z"/>
		<path class="st2" d="M200.4,87.7c-0.4,0-0.9-0.1-1.3-0.2c-20.2-6.6-20-19.7-19.8-22.1c0-1.3,0.4-6.3,4-9.9c2.3-2.3,5.4-3.5,9-3.5
			c3.8,0,6.4,1.2,8.1,2.6c1.7-1.4,4.3-2.6,8.1-2.6c3.6,0,6.7,1.2,9,3.5c3.6,3.6,3.9,8.6,4,9.9c0.2,2.4,0.4,15.5-19.8,22.1
			C201.2,87.6,200.8,87.7,200.4,87.7z M192.2,60.1c-1.4,0-2.5,0.4-3.2,1.1c-1.3,1.3-1.6,3.8-1.6,4.4c0,0.2,0,0.4,0,0.6
			c0,0.3-0.7,8.2,13,13.1c13.7-5,13-12.9,13-13.2c0-0.1,0-0.4,0-0.5l0,0c0-1.7-0.5-5.5-4.8-5.5c-2.6,0-4,1-4.1,2.9c0,2.2-1.8,4-4,4
			c-2.2,0-4-1.7-4-3.9c0,0,0,0,0,0c0,0,0,0,0,0c0,0,0,0,0,0c0,0,0,0,0,0c0,0,0,0,0,0c0,0,0,0,0,0c0,0,0,0,0,0c0,0,0,0,0,0
			c0,0,0,0,0,0c0,0,0,0,0,0c0,0,0,0,0,0c0,0,0,0,0,0c0,0,0,0,0,0l0,0C196.2,61.1,194.9,60.1,192.2,60.1z"/>
		<path class="st2" d="M200.4,112.1c-2.2,0-4-1.8-4-4V96.6c0-2.2,1.8-4,4-4s4,1.8,4,4v11.5C204.4,110.3,202.6,112.1,200.4,112.1z"/>
		<circle class="st2" cx="200.4" cy="119.1" r="4.3"/>
	</g>
</g>
<g id="레이어_3">
	<g>
		<path class="st2" d="M95.8,211.5c-2.1,0-3.8-1.7-3.8-3.8v-29.6c0-2.1,1.7-3.8,3.8-3.8s3.8,1.7,3.8,3.8v29.6
			C99.6,209.8,97.9,211.5,95.8,211.5z"/>
		<path class="st2" d="M209.1,211.5c-2.1,0-3.8-1.7-3.8-3.8v-43.5c0-2.1,1.7-3.8,3.8-3.8s3.8,1.7,3.8,3.8v43.5
			C212.9,209.8,211.2,211.5,209.1,211.5z"/>
		<path class="st2" d="M216.7,168h-47.6c-2.1,0-3.8-1.7-3.8-3.8c0-2.1,1.7-3.8,3.8-3.8h43.8v-34H92v34h31c2.1,0,3.8,1.7,3.8,3.8
			c0,2.1-1.7,3.8-3.8,3.8H88.2c-2.1,0-3.8-1.7-3.8-3.8v-41.5c0-2.1,1.7-3.8,3.8-3.8h128.6c2.1,0,3.8,1.7,3.8,3.8v41.5
			C220.5,166.3,218.8,168,216.7,168z"/>
		<path class="st2" d="M169.1,211.5c-2.1,0-3.8-1.7-3.8-3.8v-81.3h-25.8v81.3c0,2.1-1.7,3.8-3.8,3.8s-3.8-1.7-3.8-3.8v-85.1
			c0-2.1,1.7-3.8,3.8-3.8h33.4c2.1,0,3.8,1.7,3.8,3.8v85.1C172.9,209.8,171.2,211.5,169.1,211.5z"/>
		<path class="st2" d="M116.1,126.4c-6.5,0-12.1-4.3-13.9-10.7c-1.9-6.9,1-13.8,7.5-17.6c1.8-1.1,4.1-0.5,5.2,1.3
			c1.1,1.8,0.5,4.1-1.3,5.1c-4.2,2.5-4.9,6.3-4.1,9.1c0.7,2.4,2.8,5.2,6.6,5.2c2.1,0,3.8,1.7,3.8,3.8S118.2,126.4,116.1,126.4z"/>
		<path class="st2" d="M152.4,121.7c-1.8,0-3.5-1.3-3.7-3.2c-0.1-0.7-2.9-15.8-23.6-16.2c-2.1,0-3.8-1.8-3.7-3.8
			c0-2.1,1.7-3.7,3.9-3.7c21.8,0.5,29.8,15,31,22.6c0.3,2-1.1,4-3.2,4.3C152.8,121.7,152.6,121.7,152.4,121.7z"/>
		<path class="st2" d="M188.8,126.4c-2.1,0-3.8-1.7-3.8-3.8s1.7-3.8,3.8-3.8c4.3,0,6.9-3.7,6.9-7.3c0-2.3-1.1-4.5-3-6.1
			c-2.6-2.2-6.7-3.3-11.9-3.3c-21.8,0-24.4,15.6-24.5,16.2c-0.3,2.1-2.2,3.5-4.3,3.2c-2.1-0.3-3.5-2.2-3.2-4.3
			c0-0.2,3.8-22.6,32-22.6c7,0,12.8,1.7,16.8,5.1c3.7,3,5.7,7.2,5.7,11.8C203.2,119.9,196.9,126.4,188.8,126.4z"/>
		<path class="st2" d="M234.6,291h-65.5c-2.1,0-3.8-1.7-3.8-3.8s1.7-3.8,3.8-3.8h61.7v-62.8c0-2.1,1.7-3.8,3.8-3.8
			c2.1,0,3.8,1.7,3.8,3.8v66.5C238.4,289.3,236.7,291,234.6,291z"/>
		<path class="st2" d="M95.3,291H75.4c-2.1,0-3.8-1.7-3.8-3.8v-66.5c0-2.1,1.7-3.8,3.8-3.8s3.8,1.7,3.8,3.8v62.8h16
			c2.1,0,3.8,1.7,3.8,3.8S97.4,291,95.3,291z"/>
		<path class="st2" d="M329.2,291.2h-31.3c-2.1,0-3.8-1.7-3.8-3.8c0-2.1,1.7-3.8,3.8-3.8h27.5v-47.5l-29-45.5H252
			c-2.1,0-3.8-1.7-3.8-3.8s1.7-3.8,3.8-3.8h46.6c1.3,0,2.5,0.7,3.2,1.8l30.7,48.1c0.4,0.6,0.6,1.3,0.6,2v52.3
			C333,289.5,331.3,291.2,329.2,291.2z"/>
		<path class="st2" d="M131.6,317c-13.6,0-24.6-10.9-24.6-24.3s11-24.3,24.6-24.3c13.6,0,24.6,10.9,24.6,24.3S145.2,317,131.6,317z
			 M131.6,275.8c-9.4,0-17,7.5-17,16.8s7.6,16.8,17,16.8s17-7.5,17-16.8S141,275.8,131.6,275.8z"/>
		<path class="st2" d="M277.1,316.8c-13.6,0-24.6-10.9-24.6-24.3s11-24.3,24.6-24.3c13.6,0,24.6,10.9,24.6,24.3
			S290.7,316.8,277.1,316.8z M277.1,275.6c-9.4,0-17,7.5-17,16.8c0,9.3,7.6,16.8,17,16.8s17-7.5,17-16.8
			C294.1,283.2,286.5,275.6,277.1,275.6z"/>
		<path class="st2" d="M302.7,238h-45.3c-2.1,0-3.8-1.7-3.8-3.8v-26.6c0-2.1,1.7-3.8,3.8-3.8h28.3c1.3,0,2.5,0.7,3.2,1.8l16.9,26.6
			c0.7,1.2,0.8,2.6,0.1,3.8S304.1,238,302.7,238z M261.3,230.5h34.6l-12.1-19h-22.4V230.5z"/>
		<path class="st2" d="M235.2,224.5H76.1c-2.1,0-3.8-1.7-3.8-3.8c0-2.1,1.7-3.8,3.8-3.8h159.2c2.1,0,3.8,1.7,3.8,3.8
			C239,222.8,237.3,224.5,235.2,224.5z"/>
	</g>
</g>
</svg>
