<?xml version="1.0" encoding="utf-8"?>
<!-- Generator: Adobe Illustrator 22.0.1, SVG Export Plug-In . SVG Version: 6.00 Build 0)  -->
<svg version="1.1" xmlns="http://www.w3.org/2000/svg" xmlns:xlink="http://www.w3.org/1999/xlink" x="0px" y="0px"
	 viewBox="0 0 300 300" style="enable-background:new 0 0 300 300;" xml:space="preserve">
<style type="text/css">
	.st0{fill:#FFFFFF;}
	.st1{display:none;}
	.st2{display:inline;}
	.st3{fill:#F46767;}
	.st4{fill:#1CA300;}
	.st5{fill:#D84E4E;}
	.st6{fill:#E53535;}
	.st7{fill:#0E8911;}
	.st8{fill:#C92020;}
	.st9{fill:#8EF277;}
	.st10{fill:#56CC36;}
	.st11{fill:#63DD45;}
	.st12{fill:#EDDA8E;}
	.st13{fill:#CCAA66;}
	.st14{fill:#D34075;}
	.st15{fill:#A52855;}
	.st16{fill:#67DD00;}
	.st17{fill:#FF9C0D;}
	.st18{opacity:0.7;}
	.st19{fill:#D87600;}
	.st20{opacity:0.27;fill:#D87600;}
	.st21{opacity:0.39;fill:#D87600;}
</style>
<g id="원">
	<circle class="st0" cx="149.5" cy="150.5" r="149"/>
</g>
<g id="딸기" class="st1">
	<g class="st2">
		<path class="st3" d="M57.4,68.5c0,0-35.1,5.5-43.8,33.6s18.1,78.8,20.9,90.4s36.7,60,81.1,56.4s76.2-38.9,79-94.7
			c2.8-55.8-13-76.1-25.1-86.4C158.7,58.6,124.9,46.7,57.4,68.5z"/>
		<path class="st4" d="M143.5,66.3c0,0-10.3-18-47.3-10.2l-0.1,0c0-9.7,0.5-27.8,3-33.4l-6.4-0.1c0,0-4.6,16.5-2.8,34.3l-10,1.3
			c0,0-24,3.2-34.1,18.9c0,0,24.5-9.7,33.9-9.5c0,0-6.4,10.9-4.6,25c0,0,11.8-18.8,21.8-25.1c0,0,13.7,11.1,20.2,27.4
			c0,0,5.4-12.9-4.1-31C113,63.9,135.5,60.2,143.5,66.3z"/>
		<g>
			<g>
				<path class="st5" d="M47.8,118.1c-0.1,1.3,0.1,2.6,0.5,3.9c0.6,1.8,3.5,1,2.9-0.8c-0.3-1-0.4-2-0.4-3.1c0.1-0.8-0.7-1.5-1.5-1.5
					C48.5,116.6,47.9,117.3,47.8,118.1L47.8,118.1z"/>
			</g>
		</g>
		<g>
			<g>
				<path class="st5" d="M80.1,152c-0.3,1.7,0,3.3,0.8,4.9c0.9,1.7,3.5,0.2,2.6-1.5c-0.4-0.8-0.6-1.7-0.5-2.6c0.1-0.8-0.2-1.6-1-1.8
					C81.3,150.7,80.3,151.2,80.1,152L80.1,152z"/>
			</g>
		</g>
		<g>
			<g>
				<path class="st5" d="M110.1,127.2c0.3,1.2,0.5,2.3,0.6,3.5c0.1,0.8,0.6,1.5,1.5,1.5c0.8,0,1.6-0.7,1.5-1.5
					c-0.1-1.5-0.3-2.9-0.7-4.3C112.5,124.6,109.6,125.4,110.1,127.2L110.1,127.2z"/>
			</g>
		</g>
		<g>
			<g>
				<path class="st5" d="M164.2,134.9c0.4,1.2,0.7,2.5,0.7,3.8c0.1,1.9,3.1,1.9,3,0c-0.1-1.6-0.3-3.1-0.8-4.6
					C166.4,132.2,163.5,133,164.2,134.9L164.2,134.9z"/>
			</g>
		</g>
		<g>
			<g>
				<path class="st5" d="M66.3,183.3c0.4,1,0.7,2.1,0.9,3.1c0.2,0.8,1.1,1.3,1.8,1c0.8-0.2,1.2-1,1-1.8c-0.3-1.3-0.7-2.6-1.2-3.9
					c-0.3-0.7-1.4-0.9-2.1-0.5C66,181.7,66,182.6,66.3,183.3L66.3,183.3z"/>
			</g>
		</g>
		<g>
			<g>
				<path class="st5" d="M108.9,211.1c-0.1,1.7,0.4,3.3,1.4,4.7c0.5,0.7,1.3,1,2.1,0.5c0.6-0.4,1-1.4,0.5-2.1c-0.7-1-1-2-1-3.2
					C112,209.2,109,209.2,108.9,211.1L108.9,211.1z"/>
			</g>
		</g>
		<g>
			<g>
				<path class="st5" d="M151,185.5c0.4,0.7,0.6,1.5,0.7,2.3c0.1,0.8,0.6,1.5,1.5,1.5c0.8,0,1.6-0.7,1.5-1.5
					c-0.1-1.4-0.4-2.6-1.1-3.8c-0.4-0.7-1.4-0.9-2.1-0.5C150.8,183.9,150.6,184.8,151,185.5L151,185.5z"/>
			</g>
		</g>
		<g>
			<g>
				<path class="st5" d="M123,171.5c-0.2,2,0.1,3.8,0.9,5.6c0.3,0.7,1.4,0.9,2.1,0.5c0.8-0.5,0.9-1.3,0.5-2.1
					c-0.6-1.3-0.7-2.7-0.5-4.1c0.1-0.8-0.8-1.5-1.5-1.5C123.6,170,123.1,170.7,123,171.5L123,171.5z"/>
			</g>
		</g>
		<g>
			<g>
				<path class="st5" d="M136.3,96.3c0.4,0.9,0.7,1.9,1.1,2.8c0.3,0.8,1,1.3,1.8,1c0.7-0.2,1.3-1.1,1-1.8c-0.4-0.9-0.7-1.9-1.1-2.8
					c-0.3-0.8-1-1.3-1.8-1C136.6,94.7,136,95.5,136.3,96.3L136.3,96.3z"/>
			</g>
		</g>
		<path class="st6" d="M266.2,163.6c0,0,15,1.2,19.6,12.7c4.6,11.5-5,33.8-5.8,38.8c-0.8,5-13.4,26.5-32.3,26.5
			s-33.4-13.8-36.5-37.3s2.9-32.5,7.7-37.3C223.1,162.8,237,156.6,266.2,163.6z"/>
		<path class="st7" d="M229.8,165.5c0,0,3.7-7.9,19.6-5.9l0,0c-0.3-4.1-0.2-5.1-0.6-8.5l2.7-0.2c0,0,0.7,1.3,0.5,8.9l4.2,0.2
			c0,0,10.2,0.5,15,6.8c0,0-10.7-3.3-14.6-2.9c0,0,3.1,4.4,2.8,10.4c0,0-5.6-7.5-10-9.9c0,0-5.4,5.1-7.6,12.2c0,0-2.7-5.3,0.7-13.2
			C242.5,163.5,232.9,162.7,229.8,165.5z"/>
		<g>
			<g>
				<path class="st8" d="M231.1,183.1c0,1.1,0,2.3,0,3.4c0,1.4,2.3,1.5,2.3,0c0-1.1,0-2.3,0-3.4
					C233.4,181.6,231.1,181.6,231.1,183.1L231.1,183.1z"/>
			</g>
		</g>
		<g>
			<g>
				<path class="st8" d="M247.5,198.2c0,0.9,0,1.9,0,2.8c0,1.4,2.3,1.5,2.3,0c0-0.9,0-1.9,0-2.8
					C249.8,196.8,247.5,196.8,247.5,198.2L247.5,198.2z"/>
			</g>
		</g>
		<g>
			<g>
				<path class="st8" d="M265.8,188.9c0,0.6,0,1.2,0,1.9c0,1.4,2.3,1.5,2.3,0c0-0.6,0-1.2,0-1.9C268,187.5,265.8,187.5,265.8,188.9
					L265.8,188.9z"/>
			</g>
		</g>
		<g>
			<g>
				<path class="st8" d="M261.2,214.6c0.1,0.4,0.1,0.9-0.1,1.3c-0.3,0.6-0.2,1.2,0.4,1.5c0.5,0.3,1.3,0.2,1.5-0.4c0.5-1,0.6-2,0.4-3
					c-0.1-0.6-0.8-0.9-1.4-0.8C261.3,213.4,261,214,261.2,214.6L261.2,214.6z"/>
			</g>
		</g>
		<g>
			<g>
				<path class="st8" d="M225.2,203.8c0.1,0.7,0.2,1.4,0.3,2.2c0.1,0.6,0.8,0.9,1.4,0.8c0.6-0.2,0.9-0.8,0.8-1.4
					c-0.1-0.7-0.2-1.4-0.3-2.2c-0.1-0.6-0.8-0.9-1.4-0.8C225.4,202.6,225.2,203.2,225.2,203.8L225.2,203.8z"/>
			</g>
		</g>
		<g>
			<g>
				<path class="st8" d="M239.4,222.2c0,0.9,0.4,1.8,0.4,2.6c0,1.4,2.3,1.5,2.3,0c0-0.9-0.4-1.8-0.4-2.6
					C241.6,220.8,239.4,220.8,239.4,222.2L239.4,222.2z"/>
			</g>
		</g>
	</g>
</g>
<g id="사과">
	<g>
		<path class="st9" d="M21,149.9c0-43.2,17.4-88.6,54.2-104.6c29.9-13,44.7-8.5,73.8-0.3c14.1-3.7,43.9-14.1,73.3,0
			c36.4,17.5,54.7,61.5,54.7,104.9c0,70.7-60.3,128-128,128S21,220.6,21,149.9z"/>
		<g>
			<g>
				<path class="st10" d="M114.7,69c5.5,11.9,22.3,11.9,33.3,11.9c12.8,0.1,25.1-1.7,35.1-10.2c4.4-3.8-2-10.1-6.4-6.4
					c-7.5,6.5-17.3,7.6-26.9,7.6c-8,0-23.2,1.4-27.4-7.5C120,59.2,112.3,63.8,114.7,69L114.7,69z"/>
			</g>
		</g>
		<g>
			<g>
				<path class="st10" d="M152.5,72.3c-3.2-15.1,0.3-30.4,9.3-42.9c3.4-4.7-4.4-9.2-7.8-4.5c-10.3,14.4-13.8,32.5-10.2,49.8
					C145,80.4,153.7,78,152.5,72.3L152.5,72.3z"/>
			</g>
		</g>
		<g>
			<g>
				<path class="st11" d="M51.4,111.8c16.9,18.2,32,38.1,44.9,59.3c1.5,2.5,5.4,0.2,3.9-2.3c-13.2-21.6-28.4-41.7-45.6-60.2
					C52.6,106.5,49.4,109.7,51.4,111.8L51.4,111.8z"/>
			</g>
		</g>
		<g>
			<g>
				<path class="st11" d="M181.3,235.6c15.1-20.3,32.8-38.5,52.5-54.3c2.3-1.8-0.9-5-3.2-3.2c-20.1,16.1-37.9,34.6-53.2,55.3
					C175.7,235.7,179.6,237.9,181.3,235.6L181.3,235.6z"/>
			</g>
		</g>
		<g>
			<g>
				<path class="st11" d="M186.9,203.7c12.6,2.3,25.1,4.7,37.7,7c2.8,0.5,4-3.8,1.2-4.3c-12.6-2.3-25.1-4.7-37.7-7
					C185.3,198.8,184,203.1,186.9,203.7L186.9,203.7z"/>
			</g>
		</g>
		<g>
			<g>
				<path class="st11" d="M81.8,117.2c-3.9,12.7-7,25.7-9.2,38.8c-0.5,2.8,3.9,4.1,4.3,1.2c2.2-13.1,5.3-26.1,9.2-38.8
					C87,115.7,82.7,114.5,81.8,117.2L81.8,117.2z"/>
			</g>
		</g>
	</g>
</g>
<g id="고구마" class="st1">
	<g class="st2">
		<path class="st12" d="M62.9,54.5c0,0-22.2,4.9-32.9,22.3s-8.1,39.4-5.3,59.1S2.9,199.3,48,220.5s81.6,10.7,91.9-2.1
			c0,0,19.4-24.6,13-68.7c-6.4-44.1,6-41.9,7.4-56.6c1.3-14.8,4.6-38.6-35.9-46.8C85.1,38.3,78.3,49,62.9,54.5z"/>
		<g>
			<g>
				<path class="st13" d="M53.2,96.1c1.4,0,1.5-2.3,0-2.3C51.8,93.9,51.8,96.1,53.2,96.1L53.2,96.1z"/>
			</g>
		</g>
		<g>
			<g>
				<path class="st13" d="M84.4,127c0.1,0.1,0.2,0.2,0.3,0.3c0.4,0.5,1.2,0.4,1.6,0c0.5-0.5,0.4-1.1,0-1.6c-0.1-0.1-0.2-0.2-0.3-0.3
					c-0.4-0.5-1.2-0.4-1.6,0C84,125.8,84.1,126.5,84.4,127L84.4,127z"/>
			</g>
		</g>
		<g>
			<g>
				<path class="st13" d="M62.3,155c1.4,0,1.5-2.3,0-2.3C60.8,152.7,60.8,155,62.3,155L62.3,155z"/>
			</g>
		</g>
		<g>
			<g>
				<path class="st13" d="M123.4,154.5c1.4,0,1.5-2.3,0-2.3C122,152.3,122,154.5,123.4,154.5L123.4,154.5z"/>
			</g>
		</g>
		<g>
			<g>
				<path class="st13" d="M107.1,103.9c1.4,0,1.5-2.3,0-2.3C105.6,101.7,105.6,103.9,107.1,103.9L107.1,103.9z"/>
			</g>
		</g>
		<g>
			<g>
				<path class="st13" d="M128.4,74c1.4,0,1.5-2.3,0-2.3C126.9,71.8,126.9,74,128.4,74L128.4,74z"/>
			</g>
		</g>
		<g>
			<g>
				<path class="st13" d="M106.7,183.5c1.4,0,1.5-2.3,0-2.3C105.2,181.3,105.2,183.5,106.7,183.5L106.7,183.5z"/>
			</g>
		</g>
		<g>
			<g>
				<path class="st13" d="M67.5,190.3c1.4,0,1.5-2.3,0-2.3C66,188,66,190.3,67.5,190.3L67.5,190.3z"/>
			</g>
		</g>
		<path class="st14" d="M218.8,244.6c20.1,0,38.1-3.1,50.9-22.7c5.2-7.9,5.7-17.7,8.2-24.6c3.8-10.2,7.1-7.1,8.4-19.8
			c1.5-15.4,9.3-33.2-3.5-39.6c-11.4-5.7-26.1-14-42.7-6.9c-4,1.7-7.1,8.3-13,8.3c-10.6,0-17.8,1.7-23.1,3.9
			c-7,2.9-16.8,14.1-23.5,25.3c-6.7,11.2-5.9,28-3.5,42.4c2.4,14.8-14.3,32.9-3.5,42.4S207.8,244.6,218.8,244.6z"/>
		<g>
			<g>
				<path class="st15" d="M209.2,143.9c4.1,5.4,8.6,10.3,13.7,14.8c1.1,1,2.7-0.6,1.6-1.6c-4.9-4.4-9.3-9.1-13.3-14.3
					C210.3,141.6,208.3,142.7,209.2,143.9L209.2,143.9z"/>
			</g>
		</g>
		<g>
			<g>
				<path class="st15" d="M269.2,158.5c4.3,4,9.1,7.4,14.3,10.2c1.3,0.7,2.4-1.3,1.1-1.9c-5-2.7-9.7-6-13.9-9.9
					C269.7,155.9,268.1,157.5,269.2,158.5L269.2,158.5z"/>
			</g>
		</g>
		<g>
			<g>
				<path class="st15" d="M239,206.4c5.4,8.5,14,15.2,21.2,22.1c1,1,2.6-0.6,1.6-1.6c-7-6.8-15.5-13.4-20.8-21.7
					C240.1,204.1,238.2,205.2,239,206.4L239,206.4z"/>
			</g>
		</g>
		<g>
			<g>
				<path class="st15" d="M177,206.5c2.7,3.7,7.4,4.5,10.5,7.8c1,1,2.6-0.5,1.6-1.6c-2.9-3.1-7.7-3.9-10.2-7.3
					C178.1,204.2,176.1,205.3,177,206.5L177,206.5z"/>
			</g>
		</g>
		<g>
			<g>
				<path class="st15" d="M177,223.7c0.1,2.3,1.8,3.8,3.4,5.3c1.9,1.7,4,3.2,6.2,4.6c1.2,0.8,2.4-1.2,1.1-1.9
					c-1.7-1-3.3-2.2-4.8-3.4c-1.3-1.1-3.6-2.6-3.6-4.5C179.2,222.2,176.9,222.2,177,223.7L177,223.7z"/>
			</g>
		</g>
		<g>
			<g>
				<path class="st15" d="M186.1,164.1c2.7,2.4,5.4,4.9,8.1,7.3c1.1,1,2.7-0.6,1.6-1.6c-2.7-2.4-5.4-4.9-8.1-7.3
					C186.6,161.5,185,163.1,186.1,164.1L186.1,164.1z"/>
			</g>
		</g>
		<g>
			<g>
				<path class="st15" d="M257.7,211.2c2.7,3.5,6.1,6.4,9.9,8.6c1.3,0.7,2.4-1.2,1.1-1.9c-3.7-2.1-6.9-4.9-9.5-8.2
					C258.4,208.5,256.8,210.1,257.7,211.2L257.7,211.2z"/>
			</g>
		</g>
	</g>
</g>
<g id="당근" class="st1">
	<g class="st2">
		<g>
			<g>
				<path class="st16" d="M113.5,27.1c1.8,2.8,3.2,5.7,4.3,8.9c1.2,3.6,7,2.1,5.8-1.6c-1.2-3.6-2.9-7.1-4.9-10.3
					C116.6,20.8,111.4,23.8,113.5,27.1L113.5,27.1z"/>
			</g>
		</g>
		<g>
			<g>
				<path class="st16" d="M123.9,12c1,9.2,2,18.4,2.9,27.6c0.4,3.8,6.4,3.8,6,0c-1-9.2-2-18.4-2.9-27.6
					C129.5,8.2,123.5,8.2,123.9,12L123.9,12z"/>
			</g>
		</g>
		<g>
			<g>
				<path class="st16" d="M140.8,37.1c1.1-3.5,2.6-6.8,4.4-10.1c1.9-3.4-3.3-6.4-5.2-3c-2.1,3.7-3.7,7.5-5,11.5
					C133.8,39.2,139.6,40.8,140.8,37.1L140.8,37.1z"/>
			</g>
		</g>
		<path class="st17" d="M128.4,31.4c0,0-18.3-0.5-24.7,16.5s3.9,85.4,4.6,112.6c0.7,27.2,19.7,96.5,31.4,100.4s15-108.4,16.9-143
			C158.5,83.4,173.7,31.9,128.4,31.4z"/>
		<g class="st18">
			<g>
				<path class="st19" d="M103.5,68c3.1,0.3,6.3,0.3,9.4-0.1c0.9-0.1,1-1.6,0-1.5c-3.1,0.4-6.3,0.4-9.4,0.1
					C102.5,66.4,102.5,67.9,103.5,68L103.5,68z"/>
			</g>
		</g>
		<g class="st18">
			<g>
				<path class="st19" d="M104.3,80.3c5.2,0.2,10.3,0.1,15.5-0.2c1-0.1,1-1.6,0-1.5c-5.2,0.4-10.3,0.4-15.5,0.2
					C103.4,78.7,103.4,80.2,104.3,80.3L104.3,80.3z"/>
			</g>
		</g>
		<g class="st18">
			<g>
				<path class="st19" d="M156.1,106c-2.9,0.6-5.7,0.7-8.6,0.5c-1-0.1-1,1.4,0,1.5c3,0.2,6,0,9-0.6
					C157.5,107.3,157.1,105.8,156.1,106L156.1,106z"/>
			</g>
		</g>
		<g class="st18">
			<g>
				<path class="st19" d="M142.2,118c4.7,0.3,9.4-0.1,14-1.1c0.9-0.2,0.5-1.7-0.4-1.4c-4.5,1-9,1.4-13.6,1.1
					C141.2,116.5,141.2,118,142.2,118L142.2,118z"/>
			</g>
		</g>
		<g class="st18">
			<g>
				<path class="st19" d="M109.9,146.5c3.2,0.1,6.5,0.2,9.7,0.4c1,0,1-1.5,0-1.5c-3.2-0.1-6.5-0.2-9.7-0.4
					C108.9,145,108.9,146.5,109.9,146.5L109.9,146.5z"/>
			</g>
		</g>
		<g class="st18">
			<g>
				<path class="st19" d="M135.9,184.4c5.4,0.1,10.6-0.7,15.7-2.2c0.9-0.3,0.5-1.7-0.4-1.4c-5,1.5-10.1,2.2-15.3,2.2
					C134.9,182.9,134.9,184.4,135.9,184.4L135.9,184.4z"/>
			</g>
		</g>
		<g class="st18">
			<g>
				<path class="st19" d="M118.7,208.1c3.8,0.5,7.6,0.2,11.3-0.9c0.9-0.3,0.5-1.7-0.4-1.4c-3.6,1-7.2,1.3-10.9,0.9
					C117.8,206.5,117.8,208,118.7,208.1L118.7,208.1z"/>
			</g>
		</g>
		<g>
			<g>
				<g>
					<path class="st16" d="M179.9,122.6c1.1,2.7,1.8,5.5,1.9,8.5c0.1,1.9,3.1,1.9,3,0c-0.1-3.2-0.8-6.3-2-9.3
						C182,120,179.1,120.8,179.9,122.6L179.9,122.6z"/>
				</g>
			</g>
			<g>
				<g>
					<path class="st16" d="M186.2,116.9c0.6,5.2,0.8,10.3,0.5,15.5c-0.1,1.9,2.9,1.9,3,0c0.3-5.2,0.2-10.3-0.5-15.5
						C188.9,115.1,185.9,115,186.2,116.9L186.2,116.9z"/>
				</g>
			</g>
			<g>
				<g>
					<path class="st16" d="M194.2,132.4c1.1-3.1,2.6-6,4.5-8.7c1.1-1.6-1.5-3.1-2.6-1.5c-2,3-3.6,6.1-4.8,9.4
						C190.6,133.4,193.5,134.2,194.2,132.4L194.2,132.4z"/>
				</g>
			</g>
			<path class="st17" d="M190.7,128.7c0,0,6.2,0,10,2.7c2.3,1.6,3.6,6.3,3.6,10.9c0,18.5-6.1,53.6-6.5,71.8
				c-0.5,18.2-4.4,46.4-12.4,68.3c-5-11-6.6-72.7-7.9-95.9c-0.9-16.1-8.6-41.2-2.2-53C178.1,128.4,181.4,128.8,190.7,128.7z"/>
			<g class="st18">
				<g>
					<path class="st19" d="M174.2,148.7c2.6,0,5.2,0,7.7,0c0.5,0,0.5-0.8,0-0.8c-2.6,0-5.2,0-7.7,0
						C173.7,148,173.7,148.7,174.2,148.7L174.2,148.7z"/>
				</g>
			</g>
			<g class="st18">
				<g>
					<path class="st19" d="M191.1,160c3.7,0.3,7.4,0.4,11.1,0.2c0.5,0,0.5-0.8,0-0.8c-3.7,0.2-7.4,0.1-11.1-0.2
						C190.6,159.2,190.6,159.9,191.1,160L191.1,160z"/>
				</g>
			</g>
			<g class="st18">
				<g>
					<path class="st19" d="M177.6,178.5c1.7,0.3,3.5,0.4,5.2,0.2c0.5,0,0.5-0.8,0-0.8c-1.7,0.1-3.4,0.1-5-0.2
						C177.3,177.7,177.1,178.4,177.6,178.5L177.6,178.5z"/>
				</g>
			</g>
			<g class="st18">
				<g>
					<path class="st19" d="M178.8,186.9c3.3-0.1,6.5-0.1,9.8-0.2c0.5,0,0.5-0.8,0-0.8c-3.3,0.1-6.5,0.1-9.8,0.2
						C178.3,186.2,178.3,186.9,178.8,186.9L178.8,186.9z"/>
				</g>
			</g>
			<g class="st18">
				<g>
					<path class="st19" d="M191.1,211.4c1.8,0,3.7-0.1,5.5-0.1c0.5,0,0.5-0.8,0-0.8c-1.8,0-3.7,0.1-5.5,0.1
						C190.6,210.7,190.6,211.4,191.1,211.4L191.1,211.4z"/>
				</g>
			</g>
			<g class="st18">
				<g>
					<path class="st19" d="M180.4,228.4c2.6,0.2,5.2,0.2,7.7,0.1c0.5,0,0.5-0.8,0-0.8c-2.6,0.1-5.2,0-7.7-0.1
						C179.9,227.6,180,228.3,180.4,228.4L180.4,228.4z"/>
				</g>
			</g>
		</g>
		<circle class="st20" cx="145.4" cy="91.7" r="6.5"/>
		<circle class="st20" cx="127" cy="168.6" r="5.4"/>
		<circle class="st20" cx="196.3" cy="142.6" r="4.3"/>
		<circle class="st21" cx="184.4" cy="205.5" r="3.2"/>
		<circle class="st20" cx="117.3" cy="156.7" r="3.2"/>
	</g>
</g>
</svg>
