<?xml version="1.0" encoding="utf-8"?>
<!-- Generator: Adobe Illustrator 22.1.0, SVG Export Plug-In . SVG Version: 6.00 Build 0)  -->
<svg version="1.1" id="레이어_1" xmlns="http://www.w3.org/2000/svg" xmlns:xlink="http://www.w3.org/1999/xlink" x="0px"
	 y="0px" viewBox="0 0 150 150" style="enable-background:new 0 0 150 150;" xml:space="preserve">
<style type="text/css">
	.st0{fill:#FFFFFF;}
	.st1{opacity:0.3;fill:#E8492E;}
	.st2{fill:#E8492E;}
</style>
<circle class="st0" cx="75" cy="75" r="74.7"/>
<g>
	<path class="st1" d="M23.1,76.9c0-18.3,7.4-37.5,23.2-44.3C59.2,27.1,65.5,29,78,32.4c6.1-1.6,18.8-6,31.5,0
		c15.6,7.4,23.5,26,23.5,44.4c0,29.9-25.8,54.2-54.9,54.2C49,131,23.1,106.8,23.1,76.9z"/>
	<path class="st2" d="M71.9,127.2c-14,0-27.9-5.9-38.3-16.1c-10.7-10.5-16.5-24.3-16.5-38.8c0-9.6,2-19,5.7-26.7
		C26.9,37,33,30.7,40.4,27.5c12.7-5.5,19.3-3.7,31.2-0.3l0.3,0.1c0.5-0.1,1-0.3,1.5-0.4c6.4-1.8,18.2-5.1,29.8,0.5
		c7.4,3.6,13.5,9.9,17.7,18.4c3.8,7.8,5.9,17,5.9,26.6c0,14.5-5.9,28.3-16.5,38.8C99.8,121.3,85.8,127.2,71.9,127.2z M55.1,25.4
		c-4.2,0-8.5,1-14.1,3.4c-16.6,7.2-22.5,28-22.5,43.5c0,28.9,24.4,53.4,53.4,53.4s53.4-24.4,53.4-53.4c0-19.9-8.9-37.1-22.7-43.7
		c-11.1-5.3-22.1-2.3-28.7-0.4c-0.6,0.2-1.2,0.3-1.7,0.5c-0.1,0-0.3,0-0.4,0l-0.4-0.1C64.7,26.7,60,25.4,55.1,25.4z"/>
	<path class="st2" d="M30.7,56.1c5.6,6,10.7,12.4,15.2,19.2c1.3,1.9,2.6,3.9,3.8,5.9c0.6,0.9,2,0.1,1.4-0.8
		c-4.3-7.1-9.2-13.9-14.6-20.2c-1.5-1.8-3.1-3.5-4.7-5.2C31.2,54.2,30,55.4,30.7,56.1L30.7,56.1z"/>
	<path class="st2" d="M85.4,108.5c5-6.7,10.6-12.9,16.8-18.4c1.8-1.6,3.6-3.1,5.4-4.6c0.3-0.3,0.3-0.9,0-1.2c-0.3-0.3-0.8-0.3-1.2,0
		c-6.6,5.3-12.6,11.2-18,17.6c-1.5,1.8-3,3.7-4.5,5.7c-0.3,0.4-0.1,0.9,0.3,1.1C84.7,109,85.1,108.8,85.4,108.5L85.4,108.5z"/>
	<path class="st2" d="M87.9,94.9c5.3,1,10.6,2,15.9,3c0.4,0.1,0.9-0.1,1-0.6c0.1-0.4-0.1-0.9-0.6-1c-5.3-1-10.6-2-15.9-3
		c-0.4-0.1-0.9,0.1-1,0.6C87.2,94.3,87.5,94.9,87.9,94.9L87.9,94.9z"/>
	<path class="st2" d="M43.6,58.6c-1.7,5.4-3,10.9-3.9,16.4c-0.1,0.4,0.1,0.9,0.6,1c0.4,0.1,0.9-0.1,1-0.6c0.9-5.6,2.2-11,3.9-16.4
		C45.5,58,43.9,57.6,43.6,58.6L43.6,58.6z"/>
	<path class="st2" d="M72.4,40.3c-7.7,0-11.6-4.2-11.8-4.5c-0.3-0.3-0.2-0.8,0.1-1c0.3-0.3,0.8-0.2,1,0.1c0.3,0.3,7.5,8.2,22.7,0.9
		c0.4-0.2,0.8,0,1,0.3c0.2,0.4,0,0.8-0.3,1C80,39.5,75.8,40.3,72.4,40.3z"/>
	<path class="st2" d="M71.9,40.3c-0.3,0-0.6-0.2-0.7-0.6c-2.6-12.3,4.1-20.1,4.4-20.5c0.3-0.3,0.7-0.3,1-0.1c0.3,0.3,0.3,0.7,0.1,1
		l0,0c-0.1,0.1-6.5,7.7-4,19.2c0.1,0.4-0.2,0.8-0.6,0.9C72,40.3,71.9,40.3,71.9,40.3z"/>
</g>
</svg>
