<?xml version="1.0" encoding="utf-8"?>
<!-- Generator: Adobe Illustrator 22.1.0, SVG Export Plug-In . SVG Version: 6.00 Build 0)  -->
<svg version="1.1" id="레이어_1" xmlns="http://www.w3.org/2000/svg" xmlns:xlink="http://www.w3.org/1999/xlink" x="0px"
	 y="0px" viewBox="0 0 150 150" style="enable-background:new 0 0 150 150;" xml:space="preserve">
<style type="text/css">
	.st0{fill:#FFFFFF;}
	.st1{opacity:0.34;fill:#FF9C0D;}
	.st2{fill:#67DD00;}
	.st3{fill:#FF9C0D;}
	.st4{opacity:0.3;fill:#FF9C0D;}
</style>
<circle class="st0" cx="75" cy="75" r="74.7"/>
<g>
	<path class="st1" d="M67.1,30.7c0,0-7.7-0.2-10.3,6.9c-2.7,7.1,1.6,35.8,1.9,47.1c0.3,11.4,8.2,40.4,13.1,42.1
		c4.9,1.6,6.3-45.4,7.1-59.9C79.7,52.5,86.1,30.9,67.1,30.7z"/>
	<path class="st1" d="M92.3,71c0,0,2.6,0,4.2,1.1c0.9,0.7,1.5,2.6,1.5,4.6c0,7.7-2.5,22.5-2.7,30.1c-0.2,7.6-1.8,19.4-5.2,28.6
		c-2.1-4.6-2.8-30.4-3.3-40.2C86.4,88.5,83.1,78,85.8,73C87,70.9,88.4,71,92.3,71z"/>
	<path class="st2" d="M57.9,24c0.4,0.6,0.8,1.3,1.1,1.9c0.1,0.2,0.1,0.3,0.2,0.5c0,0.1,0.1,0.2,0.1,0.3c-0.1-0.3,0,0,0,0.1
		c0.1,0.3,0.3,0.7,0.4,1c0.2,0.5,0.7,0.9,1.3,0.7c0.5-0.2,0.9-0.7,0.7-1.3c-0.5-1.5-1.2-2.9-2-4.3c-0.3-0.4-0.9-0.7-1.4-0.4
		C57.8,22.9,57.6,23.5,57.9,24L57.9,24z"/>
	<path class="st2" d="M62.3,17c0.4,3.4,0.9,6.8,1.2,10.2c0.1,0.5,0.4,1,1,1c0.5,0,1.1-0.5,1-1c-0.4-3.4-0.9-6.8-1.2-10.2
		c-0.1-0.5-0.4-1-1-1C62.8,16,62.2,16.4,62.3,17L62.3,17z"/>
	<path class="st2" d="M69.4,27.8c0.1-0.4,0.3-0.8,0.4-1.2c0.1-0.2,0.1-0.4,0.2-0.5c0-0.1,0.1-0.2,0.1-0.2c-0.1,0.2,0-0.1,0.1-0.1
		c0.3-0.7,0.7-1.5,1.1-2.2c0.3-0.5,0.1-1.1-0.4-1.4c-0.5-0.3-1.1-0.1-1.4,0.4c-0.9,1.5-1.6,3.1-2.1,4.8c-0.2,0.5,0.2,1.1,0.7,1.3
		C68.7,28.7,69.2,28.4,69.4,27.8L69.4,27.8z"/>
	<path class="st3" d="M68.9,124.4c-0.2,0-0.3,0-0.5-0.1c-5.6-1.9-13.3-32.1-13.6-42.7c-0.1-3.7-0.6-9.3-1.2-15.3
		c-1.2-12.7-2.6-27.2-0.7-32.1c2.8-7.4,10.6-7.3,11-7.4l0,0c4.7,0,8.2,1.4,10.5,4c4.9,5.5,3.8,15.4,2.7,25c-0.3,2.8-0.6,5.5-0.7,7.9
		c-0.1,2-0.2,4.6-0.4,7.6c-1.2,25.3-2.6,50.1-6.3,52.7C69.5,124.3,69.2,124.4,68.9,124.4z M63.8,28.2c-0.9,0-7.3,0.2-9.6,6.5
		c-1.7,4.6-0.3,19.5,0.8,31.5c0.6,6,1.1,11.6,1.2,15.4c0.3,11.6,8.4,40,12.7,41.4c0,0,0,0,0.1,0c0.8-0.6,2.4-3.9,3.8-19.9
		c0.9-10.5,1.5-22.8,1.9-31.7c0.1-3,0.3-5.6,0.4-7.6c0.1-2.5,0.4-5.2,0.8-8c1-9.3,2.1-18.9-2.4-23.9C71.4,29.4,68.3,28.3,63.8,28.2
		L63.8,28.2C63.9,28.2,63.9,28.2,63.8,28.2z"/>
	<path class="st2" d="M85.5,65c0-0.1,0.1,0.1,0.1,0.2c0,0.1,0,0.1,0.1,0.2c0.1,0.2,0.1,0.3,0.2,0.5c0.1,0.3,0.2,0.6,0.2,0.9
		c0,0.1,0.1,0.3,0.1,0.4c0,0.1,0,0.2,0,0.2c0,0.2,0-0.1,0,0.1c0,0.3,0.1,0.6,0.1,1c0,0.4,0.3,0.7,0.7,0.7c0.4,0,0.7-0.3,0.7-0.7
		c0-1.4-0.4-2.8-0.9-4.1C86.5,64,86,63.9,85.7,64C85.4,64.3,85.3,64.6,85.5,65L85.5,65z"/>
	<path class="st2" d="M88.1,62.4c0.2,1.9,0.4,3.7,0.2,5.5c0,0.4,0.3,0.7,0.7,0.7c0.4,0,0.7-0.3,0.7-0.7c0.1-1.9,0-3.7-0.2-5.5
		c0-0.4-0.3-0.7-0.7-0.7C88.4,61.8,88,62.1,88.1,62.4L88.1,62.4z"/>
	<path class="st2" d="M91.9,68.2c0.1-0.3,0.2-0.6,0.3-0.9c-0.1,0.2,0,0,0-0.1c0-0.1,0.1-0.1,0.1-0.2c0.1-0.1,0.1-0.2,0.2-0.3
		c0.3-0.5,0.6-1,0.9-1.4c0.2-0.3,0.1-0.8-0.2-0.9c-0.3-0.2-0.7-0.1-0.9,0.2c-0.3,0.5-0.7,1-0.9,1.5c-0.3,0.6-0.5,1.1-0.7,1.7
		c-0.1,0.3,0.1,0.8,0.5,0.8C91.4,68.7,91.8,68.5,91.9,68.2L91.9,68.2z"/>
	<path class="st3" d="M87.7,133.3c-0.3,0-0.5-0.2-0.6-0.4c-1.7-3.8-2.5-20.8-3-33.2c-0.1-2.8-0.2-5.3-0.3-7.2
		c-0.1-2.1-0.5-4.5-0.9-7C81.9,79.7,81,73.6,82.9,70c1.3-2.3,2.9-2.4,6.2-2.4l0.9,0c0,0,0,0,0,0c0.2,0,2.8,0,4.6,1.2
		c1.2,0.9,1.8,3.2,1.8,5.1c0,4.1-0.7,10.3-1.4,16.2c-0.6,5.3-1.2,10.3-1.3,13.9c-0.2,7.8-1.9,19.7-5.3,28.8
		C88.3,133.1,88,133.3,87.7,133.3C87.8,133.3,87.8,133.3,87.7,133.3z M90,69l-0.9,0c-3.3,0-4.1,0.1-5,1.7c-1.7,3.2-0.8,9.3,0.1,14.7
		c0.4,2.6,0.8,5,0.9,7.1c0.1,1.9,0.2,4.3,0.3,7.2c0.4,10.2,1.1,24.9,2.3,30.8c2.8-8.6,4.3-19.3,4.5-26.4c0.1-3.6,0.7-8.6,1.3-14
		C94.3,84.1,95,78,95,74c0-1.8-0.5-3.5-1.2-4C92.6,69.1,90.7,69,90,69C90,69,90,69,90,69z"/>
	<circle class="st4" cx="75.1" cy="45.9" r="3.6"/>
	<circle class="st4" cx="84.6" cy="80.1" r="2.5"/>
	<circle class="st4" cx="57.4" cy="66.4" r="3.2"/>
	<circle class="st4" cx="71.7" cy="102.7" r="3.2"/>
	<circle class="st4" cx="67.6" cy="95" r="1.8"/>
	<circle class="st4" cx="91.5" cy="101.3" r="1.8"/>
</g>
</svg>
