<?xml version="1.0" encoding="utf-8"?>
<!-- Generator: Adobe Illustrator 22.1.0, SVG Export Plug-In . SVG Version: 6.00 Build 0)  -->
<svg version="1.1" id="레이어_1" xmlns="http://www.w3.org/2000/svg" xmlns:xlink="http://www.w3.org/1999/xlink" x="0px"
	 y="0px" viewBox="0 0 150 150" style="enable-background:new 0 0 150 150;" xml:space="preserve">
<style type="text/css">
	.st0{fill:#FFFFFF;}
	.st1{opacity:0.67;fill:#EDDA8E;}
	.st2{opacity:0.37;fill:#D34075;}
	.st3{fill:#CCAA66;}
	.st4{fill:#D34075;}
</style>
<circle class="st0" cx="75" cy="75" r="74.7"/>
<g>
	<path class="st1" d="M41.8,45.1c0,0-8.4,1.9-12.5,8.5s-3.1,15-2,22.5s-8.3,24.1,8.9,32.2s31,4.1,34.9-0.8c0,0,7.4-9.4,5-26.1
		c-2.4-16.8,2.3-15.9,2.8-21.5S80.6,45,65.1,41.9C50.2,38.9,47.6,43,41.8,45.1z"/>
	<path class="st2" d="M101.1,117c7.6,0,14.5-1.2,19.4-8.6c2-3,2.2-6.7,3.1-9.4c1.4-3.9,2.7-2.7,3.2-7.5c0.6-5.9,3.5-12.6-1.3-15.1
		c-4.3-2.2-9.9-5.3-16.2-2.6c-1.5,0.7-2.7,3.1-4.9,3.1c-4,0-6.8,0.7-8.8,1.5c-2.7,1.1-6.4,5.4-8.9,9.6s-2.2,10.6-1.3,16.1
		c0.9,5.6-5.4,12.5-1.3,16.1S96.9,117,101.1,117z"/>
	<path class="st3" d="M51.8,108.6c-5.6,0-12.3-1.3-19.5-4.7c-13.2-6.2-11.3-17.4-10-25.5c0.5-2.9,0.9-5.4,0.6-7.2
		c-1-6.7-2.3-15.9,2.1-23c4.1-6.6,12.2-8.6,13-8.8c1.2-0.4,2.2-0.9,3.3-1.5c4.1-2,8.4-4.1,20.4-1.7c15.7,3.2,14.8,12.6,14.3,18.2
		l0,0.4c-0.2,1.9-0.8,3.2-1.5,4.4c-1.3,2.5-2.9,5.7-1.3,16.9c2.4,16.9-4.8,26.3-5.1,26.7C65.8,106,59.8,108.6,51.8,108.6z
		 M52.4,36.7c-4.9,0-7.6,1.3-10.3,2.6c-1.1,0.5-2.2,1.1-3.5,1.6l-0.1,0c-0.1,0-8.2,1.9-12,8.1c-3.8,6.1-3.1,13.9-1.9,22
		c0.3,2.1-0.1,4.7-0.6,7.7c-1.4,8.1-3,18.2,9.1,23.9c9.5,4.5,17.2,4.9,22,4.4c6.4-0.6,10.4-3,12-5c0.1-0.1,7.1-9.3,4.8-25.6
		c-1.7-11.7,0.1-15.1,1.5-17.8c0.6-1.2,1.2-2.3,1.3-3.9l0-0.4c0.5-5.7,1.2-13.6-13.1-16.5C57.8,37,54.8,36.7,52.4,36.7z"/>
	<path class="st4" d="M84.6,118.8c-1.3,0-2.5-0.3-3.5-1.2c-2.7-2.4-1.5-6-0.3-9.5c0.8-2.4,1.7-4.9,1.4-7.1c-1.2-7.5-0.8-13,1.4-16.6
		c2.3-3.9,6.2-8.7,9.3-10c2.5-1,5.5-1.6,9.1-1.6c1.1,0,1.9-0.8,2.7-1.6c0.6-0.6,1.2-1.2,1.9-1.5c6.3-2.7,11.7,0,16.1,2.3l0.8,0.4
		c4.2,2.1,3.3,6.9,2.4,11.6c-0.3,1.4-0.5,2.8-0.7,4.2c-0.3,3.1-1,3.9-1.7,4.9c-0.5,0.6-1,1.3-1.5,2.8c-0.3,0.9-0.6,1.9-0.8,3
		c-0.5,2.1-1,4.5-2.4,6.5c-4.9,7.5-11.5,9-20,9c-1.4,0-3.5,0.9-5.8,1.9C90.2,117.4,87.2,118.8,84.6,118.8z M111.9,70.1
		c-1.5,0-3.1,0.3-4.7,1c-0.5,0.2-0.9,0.7-1.4,1.2c-0.9,0.9-2.1,2.1-3.8,2.1c-3.4,0-6.2,0.5-8.5,1.4c-2.3,1-5.9,4.9-8.6,9.3
		c-2,3.3-2.4,8.6-1.2,15.6c0.4,2.6-0.5,5.3-1.4,7.8c-1.1,3.3-2.1,6.1-0.2,7.8c2.2,2,6.5,0.1,10.3-1.5c2.4-1,4.7-2,6.4-2
		c8,0,14.2-1.4,18.7-8.3c1.2-1.8,1.7-4,2.2-6c0.3-1.1,0.5-2.2,0.9-3.2c0.6-1.7,1.2-2.5,1.7-3.2c0.7-0.9,1.1-1.5,1.4-4.2
		c0.1-1.4,0.4-2.9,0.7-4.3c0.8-4.5,1.6-8.4-1.6-10l-0.8-0.4C119.1,71.8,115.7,70.1,111.9,70.1z"/>
	<path class="st4" d="M95,75.3c1.5,2.1,3.3,4,5.2,5.7c0.2,0.2,0.6,0.2,0.8,0c0.2-0.2,0.2-0.6,0-0.8c-1.9-1.6-3.5-3.5-5-5.4
		c-0.2-0.2-0.5-0.4-0.8-0.2C95,74.7,94.8,75.1,95,75.3L95,75.3z"/>
	<path class="st4" d="M117.9,80.9c1.6,1.5,3.5,2.9,5.5,3.9c0.6,0.3,1.2-0.6,0.6-1c-1.9-1-3.7-2.3-5.2-3.7
		C118.1,79.6,117.3,80.4,117.9,80.9L117.9,80.9z"/>
	<path class="st4" d="M106.3,99.1c1,1.6,2.3,2.9,3.6,4.2c1.5,1.4,3,2.9,4.4,4.3c0.5,0.5,1.3-0.3,0.8-0.8c-1.4-1.4-2.9-2.8-4.3-4.2
		c-1.3-1.3-2.6-2.5-3.6-4C106.9,97.9,106,98.5,106.3,99.1L106.3,99.1z"/>
	<path class="st4" d="M82.8,99.1c0.5,0.7,1.3,1.2,2,1.7c0.4,0.2,0.7,0.4,1.1,0.6c0.1,0.1,0.2,0.1,0.3,0.2c0,0,0.1,0.1,0.1,0.1
		c0,0,0.1,0.1,0,0c0.2,0.1,0.3,0.3,0.5,0.4c0.2,0.2,0.6,0.2,0.8,0c0.2-0.2,0.2-0.6,0-0.8c-0.6-0.6-1.3-1-2.1-1.4
		c-0.4-0.2-0.7-0.4-1-0.6c0,0-0.1-0.1-0.1-0.1c-0.1-0.1,0.1,0.1-0.1,0c-0.1-0.1-0.1-0.1-0.2-0.2c-0.1-0.1-0.1-0.1-0.2-0.2
		c0,0-0.1-0.1-0.1-0.1c0.1,0.1,0,0,0-0.1c-0.2-0.3-0.5-0.4-0.8-0.2C82.7,98.5,82.6,98.9,82.8,99.1L82.8,99.1z"/>
	<path class="st4" d="M82.7,105.6c-0.1,1,0.8,1.7,1.5,2.2c0.7,0.6,1.4,1.2,2.2,1.6c0.3,0.2,0.6,0.1,0.8-0.2c0.1-0.3,0.1-0.6-0.2-0.8
		c-0.7-0.4-1.3-0.9-1.9-1.4c-0.3-0.3-0.6-0.5-0.9-0.8c-0.1-0.1-0.1-0.1-0.2-0.2c0,0,0,0,0,0c0,0-0.1-0.1-0.1-0.1c0,0,0-0.1-0.1-0.1
		c0,0.1,0,0,0,0c0,0,0-0.1,0,0c0-0.1,0-0.1,0-0.2c0-0.3-0.3-0.6-0.6-0.6C83,105.1,82.8,105.3,82.7,105.6L82.7,105.6z"/>
	<path class="st4" d="M86.2,83c1,0.9,2.1,1.8,3.1,2.8c0.2,0.2,0.6,0.2,0.8,0c0.2-0.2,0.2-0.6,0-0.8c-1-0.9-2.1-1.8-3.1-2.8
		c-0.2-0.2-0.6-0.2-0.8,0C86,82.4,86,82.8,86.2,83L86.2,83z"/>
	<path class="st4" d="M113.4,100.9c1.1,1.4,2.4,2.5,3.9,3.4c0.3,0.1,0.6,0.1,0.8-0.2c0.1-0.3,0.1-0.6-0.2-0.8
		c-0.7-0.4-1.3-0.8-1.9-1.3c-0.3-0.3-0.6-0.5-0.9-0.8c-0.1-0.1-0.3-0.3-0.4-0.4c-0.1-0.1-0.1-0.2-0.2-0.2c0,0-0.1-0.1-0.1-0.1
		c0,0-0.1-0.1-0.1-0.1c-0.2-0.2-0.5-0.4-0.8-0.2C113.4,100.2,113.2,100.6,113.4,100.9L113.4,100.9z"/>
	<circle class="st3" cx="37.2" cy="58.6" r="0.8"/>
	<circle class="st3" cx="41.8" cy="75" r="0.8"/>
	<circle class="st3" cx="63.4" cy="65.8" r="0.8"/>
	<circle class="st3" cx="52.8" cy="81.8" r="0.7"/>
	<circle class="st3" cx="34.3" cy="91" r="0.7"/>
	<circle class="st3" cx="59.6" cy="51.3" r="0.7"/>
	<circle class="st3" cx="58.3" cy="93" r="0.7"/>
</g>
</svg>
