<?xml version="1.0" encoding="utf-8"?>
<!-- Generator: Adobe Illustrator 22.1.0, SVG Export Plug-In . SVG Version: 6.00 Build 0)  -->
<svg version="1.1" id="레이어_1" xmlns="http://www.w3.org/2000/svg" xmlns:xlink="http://www.w3.org/1999/xlink" x="0px"
	 y="0px" viewBox="0 0 150 150" style="enable-background:new 0 0 150 150;" xml:space="preserve">
<style type="text/css">
	.st0{fill:#FFFFFF;}
	.st1{opacity:0.21;fill:#FF3F75;}
	.st2{opacity:0.21;fill:#E53535;}
	.st3{fill:#FF3F75;}
</style>
<circle class="st0" cx="75" cy="75" r="74.7"/>
<g>
	<path class="st1" d="M34.7,42.9c0,0-16.2,2.6-20.2,15.5s8.4,36.4,9.6,41.7s16.9,27.7,37.4,26.1s35.2-18,36.5-43.7
		c1.3-25.8-6-35.1-11.6-39.9C81.5,38.3,65.9,32.8,34.7,42.9z"/>
	<path class="st2" d="M128.4,85.7c0,0,6.9,0.5,9,5.9s-2.3,15.6-2.7,17.9c-0.4,2.3-6.2,12.2-14.9,12.2s-15.4-6.4-16.9-17.2
		s1.4-15,3.5-17.2C108.5,85.3,114.9,82.5,128.4,85.7z"/>
	<path class="st3" d="M53.6,123.1c-19.2,0-33.8-18.4-35.9-26.8c-0.4-1.7-1.5-4.4-2.8-7.6l-0.1-0.3C10.8,78.8,4.9,64.1,8,54.1
		c3.1-10.1,12.8-14,18.3-15.4c0.4-0.1,0.9,0.2,1,0.6c0.1,0.4-0.2,0.9-0.6,1c-5.2,1.3-14.3,5-17.1,14.3c-2.9,9.4,2.8,23.7,6.7,33.2
		l0.1,0.3c1.3,3.3,2.4,6,2.9,7.8c1.7,6.4,14.9,25.5,34.2,25.5c0.8,0,1.6,0,2.3-0.1c20.8-1.7,34.5-18.1,35.7-42.9
		c1.3-25.4-5.8-34.6-11.3-39.2c-1.6-1.4-6.7-4.7-17.7-5.1c-0.5,0-0.8-0.4-0.8-0.9c0-0.5,0.4-0.8,0.9-0.8c11.5,0.4,16.9,4,18.7,5.5
		c5.7,4.9,13.2,14.4,11.9,40.6C92.6,91.1,88.7,102,82,109.9c-6.6,7.7-15.6,12.3-26,13.1C55.2,123.1,54.4,123.1,53.6,123.1z"/>
	<path class="st3" d="M56.7,51.9c0,0-0.1,0-0.1,0c-0.3,0-0.5-0.2-0.6-0.5c-2.4-6.1-6.9-9.2-8.3-10c-4.3,3-9.6,9.1-9.6,9.2
		c-0.2,0.3-0.6,0.4-0.9,0.3c-0.3-0.1-0.6-0.4-0.6-0.7c-0.6-4.6,0.1-8,0.6-9.7c-4.6,0.4-13,3.2-13.1,3.2c-0.3,0.1-0.7,0-0.9-0.3
		c-0.2-0.3-0.2-0.7,0-1c4.8-7.5,15.9-9,16.3-9.1l3.8-0.5c-0.6-8,1.3-15,1.4-15.3c0.1-0.4,0.4-0.6,0.8-0.6l3,0c0.3,0,0.5,0.1,0.7,0.4
		c0.2,0.2,0.2,0.5,0.1,0.8c-0.8,1.7-1.2,6.8-1.3,14.1c16.7-3.2,21.5,5,21.7,5.3c0.2,0.3,0.1,0.7-0.1,1c-0.2,0.3-0.6,0.4-0.9,0.2
		c-3.2-1.2-7.8-1.5-10.1-1.6c3.4,8.9-1,14.3-1.2,14.5C57.2,51.8,56.9,51.9,56.7,51.9z M47.5,39.5c0.1,0,0.3,0,0.4,0.1
		c0.2,0.1,5.7,3,8.9,9.6c1-2,2.5-6.5-0.4-12.7c-0.1-0.3-0.1-0.6,0.1-0.8c0.2-0.2,0.4-0.4,0.7-0.4c0.2,0,4.7,0,8.9,0.9
		c-2.7-2-8.4-4.5-18.9-2.2c0,0,0,0-0.1,0c-0.2,0-0.5,0-0.7-0.2c-0.2-0.2-0.3-0.4-0.3-0.6c0-5.1,0.2-11.4,1.1-14.6l-1.2,0
		c-0.5,2-1.8,8.3-1.1,14.9c0,0.5-0.3,0.9-0.7,0.9L39.6,35c-0.1,0-8.5,1.2-13.5,6.3c3.3-1,8.9-2.5,12-2.5c0.1,0,0.1,0,0.2,0
		c0.3,0,0.5,0.2,0.7,0.4c0.1,0.2,0.2,0.5,0,0.8c0,0-1.4,3.1-1.1,8.1c2-2.2,5.8-6.2,9.1-8.3C47.2,39.6,47.4,39.5,47.5,39.5z"/>
	<path class="st3" d="M24.1,61.8c0,0.3,0,0.6,0,0.8c0,0.4,0.1,0.8,0.2,1.1c0.1,0.3,0.3,0.6,0.6,0.8c0.1,0.1,0.3,0.1,0.5,0.1
		c0.2,0,0.3,0,0.5,0c0.3-0.1,0.6-0.3,0.8-0.6c0.2-0.3,0.2-0.6,0.1-1c-0.1-0.2-0.1-0.5-0.2-0.8c0,0.1,0,0.2,0,0.3c0-0.3,0-0.6,0-0.8
		c0-0.2,0-0.3-0.1-0.5c-0.1-0.2-0.1-0.3-0.3-0.4c-0.1-0.1-0.2-0.2-0.4-0.3c-0.1-0.1-0.3-0.1-0.5-0.1c-0.3,0-0.7,0.1-0.9,0.4
		c-0.1,0.1-0.1,0.2-0.2,0.3C24.2,61.3,24.1,61.5,24.1,61.8L24.1,61.8z"/>
	<path class="st3" d="M39,77.2c0,0.3-0.1,0.5-0.1,0.8c0,0.3,0,0.5,0.1,0.8c0.1,0.4,0.2,0.8,0.4,1.2c0.2,0.3,0.5,0.5,0.8,0.6
		c0.2,0.1,0.3,0.1,0.5,0c0.2,0,0.3-0.1,0.5-0.1c0.3-0.2,0.5-0.4,0.6-0.8c0.1-0.3,0-0.7-0.1-1c0-0.1-0.1-0.2-0.1-0.3
		c0,0.1,0.1,0.2,0.1,0.3c-0.1-0.2-0.1-0.4-0.2-0.7c0,0.1,0,0.2,0,0.3c0-0.2,0-0.5,0-0.7c0,0.1,0,0.2,0,0.3c0,0,0-0.1,0-0.1
		c0.1-0.2,0.1-0.3,0-0.5c0-0.2-0.1-0.3-0.1-0.5c-0.1-0.1-0.2-0.3-0.3-0.4c-0.1-0.1-0.3-0.2-0.4-0.2c-0.3-0.1-0.7-0.1-1,0.1
		C39.3,76.7,39.1,76.9,39,77.2L39,77.2z"/>
	<path class="st3" d="M52.8,66.1c0.1,0.4,0.2,0.8,0.2,1.2c0-0.1,0-0.2,0-0.3c0,0.2,0.1,0.4,0.1,0.7c0,0.2,0,0.3,0.1,0.5
		c0.1,0.2,0.1,0.3,0.3,0.4c0.2,0.2,0.6,0.4,0.9,0.4c0.3,0,0.7-0.1,0.9-0.4c0.2-0.2,0.4-0.6,0.4-0.9c-0.1-0.7-0.2-1.4-0.3-2.2
		c-0.1-0.3-0.3-0.6-0.6-0.8c-0.1-0.1-0.3-0.1-0.5-0.1c-0.2,0-0.3,0-0.5,0c-0.3,0.1-0.6,0.3-0.8,0.6C52.8,65.5,52.8,65.8,52.8,66.1
		L52.8,66.1z"/>
	<path class="st3" d="M77.8,69.6c0.1,0.4,0.3,0.8,0.3,1.3c0-0.1,0-0.2,0-0.3c0,0.2,0,0.4,0.1,0.7c0,0.3,0.1,0.7,0.4,0.9
		c0.2,0.2,0.6,0.4,0.9,0.4c0.3,0,0.7-0.1,0.9-0.4c0.2-0.2,0.4-0.6,0.4-0.9c0-0.8-0.2-1.5-0.4-2.3c0-0.2-0.1-0.3-0.2-0.4
		c-0.1-0.1-0.2-0.2-0.4-0.3c-0.3-0.2-0.7-0.2-1-0.1c-0.3,0.1-0.6,0.3-0.8,0.6C77.8,69,77.7,69.3,77.8,69.6L77.8,69.6z"/>
	<path class="st3" d="M32.7,92.1C32.7,92.2,32.7,92.2,32.7,92.1c0,0,0-0.1-0.1-0.2c0.2,0.5,0.4,1,0.5,1.5c0,0.2,0.1,0.3,0.2,0.4
		c0.1,0.1,0.2,0.2,0.4,0.3c0.1,0.1,0.3,0.1,0.5,0.1c0.2,0,0.3,0,0.5,0c0.3-0.1,0.6-0.3,0.8-0.6c0-0.1,0.1-0.2,0.1-0.3
		c0.1-0.2,0.1-0.4,0-0.7c-0.1-0.7-0.4-1.3-0.6-1.9c-0.1-0.1-0.2-0.3-0.3-0.4c-0.1-0.1-0.3-0.2-0.4-0.2c-0.2-0.1-0.3-0.1-0.5,0
		c-0.2,0-0.3,0.1-0.5,0.1c-0.3,0.2-0.5,0.4-0.6,0.8c0,0.1,0,0.2,0,0.3C32.5,91.7,32.6,91.9,32.7,92.1L32.7,92.1z"/>
	<path class="st3" d="M52.3,104.7c0,0.2,0,0.3,0,0.5c0,0.3,0.1,0.5,0.1,0.8c0.1,0.2,0.2,0.5,0.3,0.7c0.1,0.2,0.2,0.3,0.3,0.4
		c0.1,0.1,0.2,0.3,0.3,0.4c0.1,0.1,0.3,0.2,0.4,0.2c0.2,0.1,0.3,0.1,0.5,0c0.2,0,0.3-0.1,0.5-0.1c0.3-0.2,0.5-0.4,0.6-0.8
		c0-0.1,0-0.2,0-0.3c0-0.2-0.1-0.4-0.2-0.6c-0.1-0.2-0.2-0.4-0.3-0.6c0,0.1,0.1,0.2,0.1,0.3c-0.1-0.2-0.2-0.5-0.2-0.7
		c0,0.1,0,0.2,0,0.3c0-0.2,0-0.4,0-0.5c0-0.2,0-0.3-0.1-0.5c-0.1-0.2-0.1-0.3-0.3-0.4c-0.2-0.2-0.6-0.4-0.9-0.4
		c-0.3,0-0.7,0.1-0.9,0.4c-0.1,0.1-0.1,0.2-0.2,0.3C52.3,104.3,52.3,104.5,52.3,104.7L52.3,104.7z"/>
	<path class="st3" d="M71.8,93.2c0.1,0.1,0.1,0.2,0.1,0.3C71.9,93.4,71.8,93.3,71.8,93.2c0.1,0.3,0.2,0.6,0.3,0.9c0-0.1,0-0.2,0-0.3
		c0,0.1,0,0.2,0,0.2c0,0.2,0,0.3,0.1,0.5c0.1,0.2,0.1,0.3,0.3,0.4c0.1,0.1,0.2,0.2,0.4,0.3c0.1,0.1,0.3,0.1,0.5,0.1
		c0.3,0,0.7-0.1,0.9-0.4c0.2-0.2,0.4-0.6,0.4-0.9c0-0.4-0.1-0.7-0.2-1.1c-0.1-0.3-0.2-0.7-0.4-1c-0.1-0.1-0.2-0.3-0.3-0.4
		c-0.1-0.1-0.3-0.2-0.4-0.2c-0.2-0.1-0.3-0.1-0.5,0c-0.2,0-0.3,0.1-0.5,0.1c-0.3,0.2-0.5,0.4-0.6,0.8c0,0.1,0,0.2,0,0.3
		C71.6,92.8,71.7,93,71.8,93.2L71.8,93.2z"/>
	<path class="st3" d="M58.8,86.1c0,0.3-0.1,0.6-0.1,0.9c0,0.3,0,0.6,0.1,0.9c0.1,0.5,0.2,1,0.4,1.4c0.1,0.3,0.5,0.5,0.8,0.6
		c0.3,0.1,0.7,0,1-0.1c0.3-0.2,0.5-0.4,0.6-0.8c0-0.1,0-0.2,0-0.3c0-0.2-0.1-0.4-0.2-0.6c0,0,0,0,0-0.1c0,0.1,0.1,0.2,0.1,0.3
		c-0.1-0.3-0.2-0.7-0.3-1c0,0.1,0,0.2,0,0.3c0-0.4,0-0.7,0-1.1c0,0.1,0,0.2,0,0.3c0,0,0,0,0,0c0.1-0.2,0.1-0.3,0-0.5
		c0-0.2-0.1-0.3-0.1-0.5c-0.2-0.3-0.5-0.5-0.8-0.6c-0.3-0.1-0.7-0.1-1,0.1c-0.1,0.1-0.2,0.1-0.3,0.2C59,85.7,58.9,85.9,58.8,86.1
		L58.8,86.1z"/>
	<path class="st3" d="M65,51.8c0.2,0.4,0.3,0.9,0.5,1.3c0,0.2,0.1,0.3,0.2,0.4c0.1,0.1,0.2,0.2,0.4,0.3c0.1,0.1,0.3,0.1,0.5,0.1
		c0.2,0,0.3,0,0.5,0c0.1,0,0.2-0.1,0.3-0.1c0.2-0.1,0.3-0.3,0.5-0.5c0-0.1,0.1-0.2,0.1-0.3c0.1-0.2,0.1-0.4,0-0.7
		c-0.2-0.4-0.3-0.9-0.5-1.3c0-0.2-0.1-0.3-0.2-0.4c-0.1-0.1-0.2-0.2-0.4-0.3c-0.1-0.1-0.3-0.1-0.5-0.1c-0.2,0-0.3,0-0.5,0
		c-0.1,0-0.2,0.1-0.3,0.1c-0.2,0.1-0.3,0.3-0.5,0.5c0,0.1-0.1,0.2-0.1,0.3C64.9,51.4,64.9,51.6,65,51.8L65,51.8z"/>
	<path class="st3" d="M116.9,119.4c-9.2,0-16.1-7-17.5-17.8c-1.5-11.1,1.4-15.4,3.7-17.7c0.7-0.7,2.8-2.4,7.6-3
		c0.3,0,0.7,0.2,0.7,0.5c0,0.3-0.2,0.7-0.5,0.7c-4.5,0.6-6.4,2.2-6.9,2.6c-2.1,2.1-4.8,6.1-3.4,16.7c1.3,10.3,7.6,16.7,16.2,16.7
		c8.3,0,14-9.7,14.3-11.7c0.1-0.6,0.4-1.6,0.8-2.9c1.3-4,3.4-10.8,1.9-14.7c-1.4-3.6-5.2-4.8-7.3-5.3c-0.3-0.1-0.6-0.4-0.5-0.7
		c0.1-0.3,0.4-0.6,0.7-0.5c2.4,0.5,6.6,1.9,8.2,6c1.7,4.3-0.5,11.3-1.8,15.5c-0.4,1.2-0.7,2.2-0.8,2.7
		C132.1,109,126,119.4,116.9,119.4z"/>
	<path class="st3" d="M114.2,89c-0.1,0-0.3,0-0.4-0.1c-0.9-0.7-2.2-2.7-1.3-5.6c-0.9-0.1-2.5,0-3.6,0.5c-0.2,0.1-0.5,0.1-0.7-0.1
		c-0.2-0.2-0.3-0.4-0.2-0.6c0-0.2,1-3.9,8.1-3.3c0-0.7,0-1.1,0-1.5c0-0.5,0-0.9-0.1-1.6c0-0.2,0-0.3,0.1-0.5
		c0.1-0.1,0.3-0.2,0.4-0.2l2.5-0.1c0.2,0,0.5,0.1,0.6,0.3c0.1,0.2,0.3,0.9,0.3,3.8l0.9,0.1c0.2,0,5,0.3,7.4,3.4
		c0.2,0.2,0.2,0.5,0,0.7c-0.1,0.2-0.4,0.3-0.7,0.3c0,0-2.9-0.6-4.7-0.7c0.1,0.7,0.1,1.9,0,3.5c0,0.2-0.2,0.4-0.4,0.5
		c-0.2,0.1-0.5,0.1-0.7-0.1c0,0-2.4-2-4.3-3c-0.6,0.4-2.1,1.5-2.8,3.8c-0.1,0.2-0.2,0.4-0.4,0.4C114.3,89,114.3,89,114.2,89z
		 M111.8,82c0.9,0,1.6,0.1,1.7,0.1c0.2,0,0.4,0.1,0.5,0.3c0.1,0.2,0.1,0.4,0,0.6c-0.8,2-0.4,3.4,0,4.1c1.2-2.7,3.2-3.7,3.3-3.7
		c0.2-0.1,0.4-0.1,0.6,0c1.3,0.7,2.9,1.8,3.9,2.6c0-1.8-0.2-2.7-0.2-2.7c0-0.2,0-0.4,0.1-0.5c0.1-0.1,0.3-0.2,0.4-0.3
		c1-0.1,2.4,0.1,3.6,0.3c-2.1-1.3-4.8-1.5-4.9-1.5l-1.5-0.1c-0.3,0-0.6-0.3-0.6-0.6c0-1.9,0-3-0.1-3.4l-1.3,0.1c0,0.4,0,0.8,0,1.1
		c0,0.5,0,1,0.1,1.8l0.1,0.2c0.1,0.2,0,0.4-0.1,0.6c-0.1,0.2-0.4,0.3-0.6,0.2c-3.7-0.5-5.6,0.2-6.6,1C110.8,82.1,111.3,82,111.8,82z
		"/>
	<path class="st3" d="M108.9,91.7c0,0.5,0,1,0,1.6c0,0.2,0.1,0.5,0.3,0.7c0.2,0.2,0.4,0.3,0.7,0.3c0.2,0,0.5-0.1,0.7-0.3
		c0.2-0.2,0.3-0.4,0.3-0.7c0-0.5,0-1,0-1.6c0-0.2-0.1-0.5-0.3-0.7c-0.2-0.2-0.4-0.3-0.7-0.3c-0.2,0-0.5,0.1-0.7,0.3
		C109,91.3,108.9,91.5,108.9,91.7L108.9,91.7z"/>
	<path class="st3" d="M116.4,98.7c0,0.4,0,0.9,0,1.3c0,0.2,0.1,0.5,0.3,0.7c0.1,0.1,0.2,0.2,0.3,0.2c0.1,0.1,0.2,0.1,0.4,0.1
		c0.2,0,0.5-0.1,0.7-0.3c0.2-0.2,0.3-0.4,0.3-0.7c0-0.4,0-0.9,0-1.3c0-0.2-0.1-0.5-0.3-0.7c-0.1-0.1-0.2-0.2-0.3-0.2
		c-0.1-0.1-0.2-0.1-0.4-0.1c-0.2,0-0.5,0.1-0.7,0.3C116.5,98.3,116.4,98.5,116.4,98.7L116.4,98.7z"/>
	<path class="st3" d="M129.7,94.5c0,0.3,0,0.6,0,0.9c0,0.1,0,0.3,0.1,0.4c0,0.1,0.1,0.2,0.2,0.3c0.1,0.1,0.2,0.2,0.3,0.2
		c0.1,0.1,0.2,0.1,0.4,0.1c0.1,0,0.2,0,0.3,0c0.2,0,0.3-0.1,0.4-0.2c0-0.1,0.1-0.1,0.1-0.2c0.1-0.1,0.1-0.3,0.1-0.5
		c0-0.3,0-0.6,0-0.9c0-0.1,0-0.3-0.1-0.4c0-0.1-0.1-0.2-0.2-0.3c-0.1-0.1-0.2-0.2-0.3-0.2c-0.1-0.1-0.2-0.1-0.4-0.1
		c-0.1,0-0.2,0-0.3,0c-0.2,0-0.3,0.1-0.4,0.2c0,0.1-0.1,0.1-0.1,0.2C129.7,94.1,129.7,94.3,129.7,94.5L129.7,94.5z"/>
	<path class="st3" d="M127.6,106.4c0,0.1,0,0.1,0,0.2C127.6,106.5,127.6,106.4,127.6,106.4c0,0,0,0.2,0,0.3
		C127.6,106.6,127.6,106.6,127.6,106.4c0,0.2,0,0.3-0.1,0.4c0-0.1,0.1-0.2,0.1-0.2c0,0,0,0.1,0,0.1c-0.1,0.1-0.1,0.2-0.1,0.4
		c0,0.1,0,0.3,0,0.4c0,0.1,0.1,0.2,0.2,0.3c0.1,0.1,0.2,0.2,0.3,0.2c0.2,0.1,0.5,0.2,0.7,0.1c0.2-0.1,0.5-0.2,0.6-0.4
		c0.1-0.2,0.1-0.3,0.2-0.5c0-0.2,0.1-0.3,0.1-0.5c0-0.1,0-0.2,0-0.3c0-0.2,0-0.3-0.1-0.5c0-0.1-0.1-0.2-0.2-0.3
		c-0.1-0.1-0.2-0.2-0.3-0.2c-0.1-0.1-0.2-0.1-0.4-0.1c-0.1,0-0.3,0-0.4,0c-0.2,0.1-0.4,0.2-0.6,0.4c0,0.1-0.1,0.2-0.1,0.2
		C127.5,106.1,127.5,106.3,127.6,106.4L127.6,106.4z"/>
	<path class="st3" d="M106.1,101.4c0,0.3,0.1,0.7,0.1,1c0,0.1,0.1,0.2,0.2,0.3c0.1,0.1,0.2,0.2,0.3,0.2c0.1,0.1,0.2,0.1,0.4,0.1
		c0.1,0,0.3,0,0.4,0c0.2-0.1,0.4-0.2,0.6-0.4c0-0.1,0.1-0.2,0.1-0.2c0-0.2,0-0.3,0-0.5c0-0.3-0.1-0.7-0.1-1c0-0.1-0.1-0.2-0.2-0.3
		c-0.1-0.1-0.2-0.2-0.3-0.2c-0.1-0.1-0.2-0.1-0.4-0.1c-0.1,0-0.3,0-0.4,0c-0.2,0.1-0.4,0.2-0.6,0.4c0,0.1-0.1,0.2-0.1,0.2
		C106.1,101.1,106.1,101.3,106.1,101.4L106.1,101.4z"/>
	<path class="st3" d="M112.7,109.8c0,0.3,0,0.5,0.1,0.8c0,0.1,0.1,0.3,0.1,0.4c0-0.1,0-0.2,0-0.3c0,0.1,0,0.2,0,0.3
		c0,0.2,0.1,0.5,0.3,0.7c0.1,0.1,0.2,0.2,0.3,0.2c0.1,0.1,0.2,0.1,0.4,0.1c0.2,0,0.5-0.1,0.7-0.3c0.2-0.2,0.3-0.4,0.3-0.7
		c0-0.3,0-0.5-0.1-0.8c0-0.1-0.1-0.3-0.1-0.4c0,0.1,0,0.2,0,0.3c0-0.1,0-0.2,0-0.3c0-0.2-0.1-0.5-0.3-0.7c-0.1-0.1-0.2-0.2-0.3-0.2
		c-0.1-0.1-0.2-0.1-0.4-0.1c-0.2,0-0.5,0.1-0.7,0.3C112.8,109.3,112.7,109.6,112.7,109.8L112.7,109.8z"/>
</g>
</svg>
