<?xml version="1.0" encoding="utf-8"?>
<!-- Generator: Adobe Illustrator 22.0.1, SVG Export Plug-In . SVG Version: 6.00 Build 0)  -->
<svg version="1.1" id="Layer_1" xmlns="http://www.w3.org/2000/svg" xmlns:xlink="http://www.w3.org/1999/xlink" x="0px" y="0px"
	 viewBox="0 0 100 100" style="enable-background:new 0 0 100 100;" xml:space="preserve">
<style type="text/css">
	.st0{fill:#FF3F75;}
</style>
<g>
	<path class="st0" d="M70.2,26.2c-15.8,0-26.9,12.6-27.9,27.4c0,0.7-0.2,1.9-0.4,2.8c-0.8,8.2-4.6,14.4-11.6,14.4
		c-7.1,0-10.9-6.4-11.6-14.8c-0.1-0.7-0.1-1.4-0.1-2.2l0,0c0-0.2,0-0.4,0-0.6c0-0.1,0-0.1,0-0.2c0-0.1,0-0.1,0-0.2
		c0-9.9,4.9-18,11.7-18c4.5,0,7.7,3.4,9.6,7.4c1.5-3.7,3.9-8,6.7-10.8c-5.1-3.6-9.9-5.3-16.9-5.3c-15,0-27.2,12.2-27.2,27.2
		s12.2,27.2,27.2,27.2c15.1,0,27.8-12.1,27.9-26.9l0,0c0.1-0.9,0.2-2.4,0.4-3.3c0.8-8.2,4.6-14.4,11.6-14.4
		c7.1,0,10.9,6.4,11.6,14.8c0.1,0.7,0.1,1.4,0.1,2.2l0,0c0,0.2,0,0.4,0,0.6c0,0.1,0,0.1,0,0.2c0,0.1,0,0.1,0,0.2
		c0,9.9-4.8,18-11.7,18c-4.4,0-7.7-2.9-9.6-6.9c-1.5,3.8-3.6,7.5-6.4,10.4c4.4,4.2,9.6,5.2,16.5,5.2c15,0,26.9-11.9,26.9-26.9
		S84.2,26.2,70.2,26.2z"/>
	<path class="st0" d="M50.2,28.5c1.3-1,3-2.3,4.3-3C53.8,18.6,49.3,14,45.1,13l-3.9,10.3C44.5,24.3,47.5,26.3,50.2,28.5z"/>
</g>
</svg>
