<?xml version="1.0" encoding="utf-8"?>
<!-- Generator: Adobe Illustrator 22.0.1, SVG Export Plug-In . SVG Version: 6.00 Build 0)  -->
<svg version="1.1" id="Layer_1" xmlns="http://www.w3.org/2000/svg" xmlns:xlink="http://www.w3.org/1999/xlink" x="0px" y="0px"
	 viewBox="0 0 100 100" style="enable-background:new 0 0 100 100;" xml:space="preserve">
<style type="text/css">
	.st0{display:none;}
	.st1{display:inline;}
	.st2{fill:#E74375;}
	.st3{fill:#FF3F75;}
</style>
<g id="Layer_1_1_" class="st0">
	<g class="st1">
		<path class="st2" d="M70.2,26.2c-15.8,0-26.9,12.6-27.9,27.4c0,0.7-0.2,1.9-0.4,2.8c-0.8,8.2-4.6,14.4-11.6,14.4
			c-7.1,0-10.9-6.4-11.6-14.8c-0.1-0.7-0.1-1.4-0.1-2.2l0,0c0-0.2,0-0.4,0-0.6c0-0.1,0-0.1,0-0.2c0-0.1,0-0.1,0-0.2
			c0-9.9,4.9-18,11.7-18c4.5,0,7.7,3.4,9.6,7.4c1.5-3.7,3.9-8,6.7-10.8c-5.1-3.6-9.9-5.3-16.9-5.3c-15,0-27.2,12.2-27.2,27.2
			s12.2,27.2,27.2,27.2c15.1,0,27.8-12.1,27.9-26.9l0,0c0.1-0.9,0.2-2.4,0.4-3.3c0.8-8.2,4.6-14.4,11.6-14.4
			c7.1,0,10.9,6.4,11.6,14.8c0.1,0.7,0.1,1.4,0.1,2.2l0,0c0,0.2,0,0.4,0,0.6c0,0.1,0,0.1,0,0.2c0,0.1,0,0.1,0,0.2
			c0,9.9-4.8,18-11.7,18c-4.4,0-7.7-2.9-9.6-6.9c-1.5,3.8-3.6,7.5-6.4,10.4c4.4,4.2,9.6,5.2,16.5,5.2c15,0,26.9-11.9,26.9-26.9
			S84.2,26.2,70.2,26.2z"/>
		<path class="st2" d="M50.2,28.5c1.3-1,3-2.3,4.3-3C53.8,18.6,49.3,14,45.1,13l-3.9,10.3C44.5,24.3,47.5,26.3,50.2,28.5z"/>
	</g>
</g>
<g id="Layer_2_1_" class="st0">
	<g class="st1">
		<g>
			<path class="st2" d="M27.6,76.7c-13.9,0-24.7-11.2-24.7-25.6s10.9-25.6,24.7-25.6c2.9,0,5.8,0.5,8.5,1.5c0.9,0.3,1.8,0.7,2.6,1.1
				c0.1,0,3,1.2,6.1,4.2c1,0.9,1,2.5,0,3.5c-0.9,1-2.5,1-3.5,0c-2.4-2.4-4.6-3.3-4.6-3.3c-0.8-0.4-1.5-0.7-2.3-0.9
				c-2.2-0.8-4.5-1.2-6.9-1.2c-11.1,0-19.8,9.1-19.8,20.7s8.7,20.7,19.8,20.7c3.9,0,7.6-1.1,10.8-3.1c7.9-4.9,7.8-11.3,7.8-16.5
				v-1.1c0-1.4,1.1-2.5,2.5-2.5s2.5,1.1,2.5,2.5v1.1c0.1,5.4,0.1,14.3-10.1,20.7C37,75.4,32.4,76.7,27.6,76.7z"/>
			<path class="st2" d="M71.8,76.7c-4.3,0-8.7-1.1-12.5-3.3c-0.9-0.5-4.4-2.6-4.4-2.6l2.5-4.2c0,0,3.4,2,4.2,2.5
				c3.1,1.7,6.6,2.7,10.1,2.7c11.1,0,19.8-9.1,19.8-20.7s-8.7-20.7-19.8-20.7C60.3,30.4,51,39.7,51,51.1c0,1.4-1.1,2.5-2.5,2.5
				S46,52.5,46,51.1C46,37,57.5,25.5,71.6,25.5c13.8,0,24.7,11.2,24.7,25.6S85.6,76.7,71.8,76.7z"/>
		</g>
		<path class="st2" d="M50.7,26.4c-0.8,0-1.5-0.4-2-1c-2.3-3.3-3.6-4.1-7.2-5.7c-1.2-0.6-1.8-2-1.2-3.2s2-1.8,3.2-1.2
			c4.1,1.9,6.2,3.1,9.2,7.3c0.8,1.1,0.5,2.6-0.6,3.4C51.7,26.2,51.2,26.4,50.7,26.4z"/>
	</g>
</g>
<g id="Layer_3" class="st0">
	<g class="st1">
		<path class="st2" d="M14.4,23.6L14.4,23.6c-0.8,0-1.5-0.3-2-0.9l-9-9.6c-1-1.1-1-2.8,0.1-3.8s2.8-1,3.8,0.1l7,7.6L25.7,5.3
			c1-1.1,2.7-1.1,3.8-0.1c1.1,1,1.1,2.7,0.1,3.8L16.4,22.8C15.9,23.3,15.1,23.6,14.4,23.6z"/>
		<path class="st2" d="M94.3,16.8H40.7c-1.5,0-2.7-1.2-2.7-2.7s1.2-2.7,2.7-2.7h53.6c1.5,0,2.7,1.2,2.7,2.7S95.8,16.8,94.3,16.8z"/>
		<path class="st2" d="M14.4,59.4L14.4,59.4c-0.8,0-1.5-0.3-2-0.9l-9-9.6c-1-1.1-1-2.8,0.1-3.8s2.8-1,3.8,0.1l7,7.6l11.3-11.7
			c1-1.1,2.7-1.1,3.8-0.1c1.1,1,1.1,2.7,0.1,3.8L16.4,58.6C15.9,59.1,15.1,59.4,14.4,59.4z"/>
		<path class="st2" d="M94.3,52.5H40.7c-1.5,0-2.7-1.2-2.7-2.7s1.2-2.7,2.7-2.7h53.6c1.5,0,2.7,1.2,2.7,2.7S95.8,52.5,94.3,52.5z"/>
		<path class="st2" d="M14.4,95.2L14.4,95.2c-0.8,0-1.5-0.3-2-0.9l-9-9.6c-1-1.1-1-2.8,0.1-3.8s2.8-1,3.8,0.1l7,7.6l11.3-11.7
			c1-1.1,2.7-1.1,3.8-0.1c1.1,1,1.1,2.7,0.1,3.8L16.4,94.4C15.9,94.9,15.1,95.2,14.4,95.2z"/>
		<path class="st2" d="M94.3,88.3H40.7c-1.5,0-2.7-1.2-2.7-2.7s1.2-2.7,2.7-2.7h53.6c1.5,0,2.7,1.2,2.7,2.7S95.8,88.3,94.3,88.3z"/>
	</g>
</g>
<g id="Layer_4">
	<g>
		<path class="st3" d="M56.6,13.3H46.2c-1.6,0-2.8-1.3-2.8-2.8s1.3-2.8,2.8-2.8h10.4c1.6,0,2.8,1.3,2.8,2.8S58.2,13.3,56.6,13.3z
			 M35.8,13.3H25.5c-1.6,0-2.8-1.3-2.8-2.8s1.3-2.8,2.8-2.8h10.4c1.6,0,2.8,1.3,2.8,2.8S37.4,13.3,35.8,13.3z"/>
		<path class="st3" d="M64.1,10.4"/>
		<path class="st3" d="M71.9,59.7c-1.6,0-2.8-1.3-2.8-2.8V46.5c0-1.6,1.3-2.8,2.8-2.8s2.8,1.3,2.8,2.8v10.4
			C74.8,58.5,73.5,59.7,71.9,59.7z M71.9,39c-1.6,0-2.8-1.3-2.8-2.8V25.8c0-1.6,1.3-2.8,2.8-2.8s2.8,1.3,2.8,2.8v10.4
			C74.8,37.7,73.5,39,71.9,39z"/>
		<path class="st3" d="M56.6,75.1H46.2c-1.6,0-2.8-1.3-2.8-2.8c0-1.6,1.3-2.8,2.8-2.8h10.4c1.6,0,2.8,1.3,2.8,2.8
			C59.4,73.8,58.2,75.1,56.6,75.1z M35.8,75.1H25.5c-1.6,0-2.8-1.3-2.8-2.8c0-1.6,1.3-2.8,2.8-2.8h10.4c1.6,0,2.8,1.3,2.8,2.8
			C38.7,73.8,37.4,75.1,35.8,75.1z"/>
		<path class="st3" d="M10.1,59.7c-1.6,0-2.8-1.3-2.8-2.8V46.5c0-1.6,1.3-2.8,2.8-2.8s2.8,1.3,2.8,2.8v10.4
			C12.9,58.5,11.7,59.7,10.1,59.7z M10.1,39c-1.6,0-2.8-1.3-2.8-2.8V25.8c0-1.6,1.3-2.8,2.8-2.8s2.8,1.3,2.8,2.8v10.4
			C12.9,37.7,11.7,39,10.1,39z"/>
	</g>
	<path class="st3" d="M95,98.1H43c-1.6,0-2.8-1.3-2.8-2.8v-52c0-1.6,1.3-2.8,2.8-2.8h52c1.6,0,2.8,1.3,2.8,2.8v51.9
		C97.8,96.8,96.5,98.1,95,98.1z M45.9,92.4h46.3V46.2H45.9V92.4z"/>
	<path class="st3" d="M15.2,17.9H5c-1.6,0-2.8-1.3-2.8-2.8V4.8C2.2,3.3,3.4,2,5,2h10.2C16.8,2,18,3.3,18,4.8V15
		C18.1,16.6,16.8,17.9,15.2,17.9z M7.8,12.2h4.6V7.7H7.8V12.2z"/>
	<path class="st3" d="M77,17.9H66.8c-1.6,0-2.8-1.3-2.8-2.8V4.8C64,3.3,65.2,2,66.8,2H77c1.6,0,2.8,1.3,2.8,2.8V15
		C79.9,16.6,78.6,17.9,77,17.9z M69.6,12.2h4.6V7.7h-4.6V12.2z"/>
	<g>
		<path class="st3" d="M15.2,80.2H5c-1.6,0-2.8-1.3-2.8-2.8V67.1c0-1.6,1.3-2.8,2.8-2.8h10.2c1.6,0,2.8,1.3,2.8,2.8v10.2
			C18.1,78.9,16.8,80.2,15.2,80.2z M7.8,74.5h4.6V70H7.8V74.5z"/>
	</g>
	<g>
		<path class="st3" d="M77,80.2H66.8c-1.6,0-2.8-1.3-2.8-2.8V67.1c0-1.6,1.3-2.8,2.8-2.8H77c1.6,0,2.8,1.3,2.8,2.8v10.2
			C79.9,78.9,78.6,80.2,77,80.2z M69.6,74.5h4.6V70h-4.6V74.5z"/>
	</g>
</g>
<g id="Layer_5" class="st0">
	<g class="st1">
		<path class="st2" d="M42.1,45.6H4.7c-1.7,0-3.1-1.4-3.1-3.1V5.1C1.6,3.4,3,2,4.7,2H42c1.7,0,3.1,1.4,3.1,3.1v37.3
			C45.2,44.2,43.8,45.6,42.1,45.6z M7.9,39.3H39v-31H7.9V39.3z"/>
		<path class="st2" d="M94.7,45.6H57.4c-1.7,0-3.1-1.4-3.1-3.1V5.1c0-1.7,1.4-3.1,3.1-3.1h37.3c1.7,0,3.1,1.4,3.1,3.1v37.3
			C97.8,44.2,96.4,45.6,94.7,45.6z M60.5,39.3h31.1v-31H60.5V39.3z"/>
		<path class="st2" d="M42.1,97.2H4.7c-1.7,0-3.1-1.4-3.1-3.1V56.7c0-1.7,1.4-3.1,3.1-3.1H42c1.7,0,3.1,1.4,3.1,3.1V94
			C45.2,95.8,43.8,97.2,42.1,97.2z M7.9,90.9H39v-31H7.9V90.9z"/>
		<path class="st2" d="M94.7,97.2H57.4c-1.7,0-3.1-1.4-3.1-3.1V56.7c0-1.7,1.4-3.1,3.1-3.1h37.3c1.7,0,3.1,1.4,3.1,3.1V94
			C97.8,95.8,96.4,97.2,94.7,97.2z M60.5,90.9h31.1v-31H60.5V90.9z"/>
	</g>
</g>
</svg>
