<?xml version="1.0" encoding="utf-8"?>
<!-- Generator: Adobe Illustrator 22.0.1, SVG Export Plug-In . SVG Version: 6.00 Build 0)  -->
<svg version="1.1" id="Layer_1" xmlns="http://www.w3.org/2000/svg" xmlns:xlink="http://www.w3.org/1999/xlink" x="0px" y="0px"
	 viewBox="0 0 100 100" style="enable-background:new 0 0 100 100;" xml:space="preserve">
<style type="text/css">
	.st0{display:none;}
	.st1{display:inline;}
	.st2{fill:#E74375;}
	.st3{fill:#FF3F75;}
</style>
<g id="Layer_1_1_" class="st0">
	<g class="st1">
		<path class="st2" d="M70.2,26.2c-15.8,0-26.9,12.6-27.9,27.4c0,0.7-0.2,1.9-0.4,2.8c-0.8,8.2-4.6,14.4-11.6,14.4
			c-7.1,0-10.9-6.4-11.6-14.8c-0.1-0.7-0.1-1.4-0.1-2.2l0,0c0-0.2,0-0.4,0-0.6c0-0.1,0-0.1,0-0.2c0-0.1,0-0.1,0-0.2
			c0-9.9,4.9-18,11.7-18c4.5,0,7.7,3.4,9.6,7.4c1.5-3.7,3.9-8,6.7-10.8c-5.1-3.6-9.9-5.3-16.9-5.3c-15,0-27.2,12.2-27.2,27.2
			s12.2,27.2,27.2,27.2c15.1,0,27.8-12.1,27.9-26.9l0,0c0.1-0.9,0.2-2.4,0.4-3.3c0.8-8.2,4.6-14.4,11.6-14.4
			c7.1,0,10.9,6.4,11.6,14.8c0.1,0.7,0.1,1.4,0.1,2.2l0,0c0,0.2,0,0.4,0,0.6c0,0.1,0,0.1,0,0.2c0,0.1,0,0.1,0,0.2
			c0,9.9-4.8,18-11.7,18c-4.4,0-7.7-2.9-9.6-6.9c-1.5,3.8-3.6,7.5-6.4,10.4c4.4,4.2,9.6,5.2,16.5,5.2c15,0,26.9-11.9,26.9-26.9
			S84.2,26.2,70.2,26.2z"/>
		<path class="st2" d="M50.2,28.5c1.3-1,3-2.3,4.3-3C53.8,18.6,49.3,14,45.1,13l-3.9,10.3C44.5,24.3,47.5,26.3,50.2,28.5z"/>
	</g>
</g>
<g id="Layer_2_1_">
	<g>
		<g>
			<path class="st3" d="M27.6,76.7c-13.9,0-24.7-11.2-24.7-25.6s10.9-25.6,24.7-25.6c2.9,0,5.8,0.5,8.5,1.5c0.9,0.3,1.8,0.7,2.6,1.1
				c0.1,0,3,1.2,6.1,4.2c1,0.9,1,2.5,0,3.5c-0.9,1-2.5,1-3.5,0c-2.4-2.4-4.6-3.3-4.6-3.3c-0.8-0.4-1.5-0.7-2.3-0.9
				c-2.2-0.8-4.5-1.2-6.9-1.2c-11.1,0-19.8,9.1-19.8,20.7s8.7,20.7,19.8,20.7c3.9,0,7.6-1.1,10.8-3.1c7.9-4.9,7.8-11.3,7.8-16.5
				v-1.1c0-1.4,1.1-2.5,2.5-2.5s2.5,1.1,2.5,2.5v1.1c0.1,5.4,0.1,14.3-10.1,20.7C37,75.4,32.4,76.7,27.6,76.7z"/>
			<path class="st3" d="M71.8,76.7c-4.3,0-8.7-1.1-12.5-3.3c-0.9-0.5-4.4-2.6-4.4-2.6l2.5-4.2c0,0,3.4,2,4.2,2.5
				c3.1,1.7,6.6,2.7,10.1,2.7c11.1,0,19.8-9.1,19.8-20.7s-8.7-20.7-19.8-20.7C60.3,30.4,51,39.7,51,51.1c0,1.4-1.1,2.5-2.5,2.5
				S46,52.5,46,51.1C46,37,57.5,25.5,71.6,25.5c13.8,0,24.7,11.2,24.7,25.6S85.6,76.7,71.8,76.7z"/>
		</g>
		<path class="st3" d="M50.7,26.4c-0.8,0-1.5-0.4-2-1c-2.3-3.3-3.6-4.1-7.2-5.7c-1.2-0.6-1.8-2-1.2-3.2s2-1.8,3.2-1.2
			c4.1,1.9,6.2,3.1,9.2,7.3c0.8,1.1,0.5,2.6-0.6,3.4C51.7,26.2,51.2,26.4,50.7,26.4z"/>
	</g>
</g>
<g id="Layer_3">
</g>
<g id="Layer_4">
</g>
<g id="Layer_5">
</g>
</svg>
