<?xml version="1.0" encoding="utf-8"?>
<!-- Generator: Adobe Illustrator 22.0.1, SVG Export Plug-In . SVG Version: 6.00 Build 0)  -->
<svg version="1.1" xmlns="http://www.w3.org/2000/svg" xmlns:xlink="http://www.w3.org/1999/xlink" x="0px" y="0px"
	 viewBox="0 0 285 99.3" style="enable-background:new 0 0 285 99.3;" xml:space="preserve">
<style type="text/css">
	.st0{display:none;}
	.st1{display:inline;fill:#0F0F0F;}
	.st2{fill:#FFFFFF;}
</style>
<g id="Layer_2" class="st0">
	<rect y="0" class="st1" width="285" height="99"/>
</g>
<g id="레이어_1">
	<g>
		<g>
			<path class="st2" d="M55.8,55.6H20.3v38.3H1.8V1.6h60.4v14.3H20.3v25.4h35.4V55.6z"/>
			<path class="st2" d="M21.3,94.9H0.9V0.7h62.3v16.1H21.3v23.6h35.4v16.1H21.3V94.9z M2.8,93h16.7V54.7h35.4V42.2H19.4V15h41.9V2.6
				H2.8V93z"/>
		</g>
		<g>
			<path class="st2" d="M108.9,41.3l-6.8-0.2c-2.7,0-5,0.6-6.8,1.7c-1.8,1.1-3.1,2.7-4.1,4.8v46.3H72.8V25.3H90l0.8,10.1
				c1.6-3.6,3.7-6.4,6.2-8.4c2.6-2,5.5-3,8.8-3c0.9,0,1.8,0.1,2.6,0.2c0.8,0.1,1.6,0.3,2.4,0.5L108.9,41.3z"/>
			<path class="st2" d="M92.2,94.9H71.9V24.4h19l0.6,7.8c1.4-2.4,3.1-4.3,5-5.8c2.7-2.1,5.9-3.2,9.4-3.2c1,0,1.9,0.1,2.7,0.2
				c0.8,0.2,1.6,0.3,2.4,0.6l0.8,0.2l-2.2,18.1l-7.6-0.2c-2.5,0-4.6,0.5-6.3,1.6c-1.6,1-2.8,2.4-3.6,4.2V94.9z M73.8,93h16.6V47.4
				l0.1-0.2c1-2.2,2.5-4,4.4-5.2c1.9-1.2,4.4-1.9,7.3-1.9l6,0.2l1.8-14.8c-0.5-0.1-1-0.2-1.5-0.3c-0.7-0.1-1.5-0.2-2.4-0.2
				c-3.1,0-5.9,0.9-8.3,2.8c-2.4,1.9-4.4,4.6-6,8l-1.5,3.3l-1-12.9H73.8V93z"/>
		</g>
		<g>
			<path class="st2" d="M271.4,8.5v16.8H283v13h-11.6v34.9c0,2.7,0.6,4.6,1.7,5.7c1.1,1.1,2.6,1.7,4.4,1.7c1,0,1.8-0.1,2.5-0.2
				c0.7-0.1,1.5-0.3,2.5-0.5l1.5,13.4c-1.9,0.6-3.7,1.1-5.4,1.4c-1.8,0.3-3.7,0.5-5.7,0.5c-6.4,0-11.3-1.8-14.7-5.3
				c-3.4-3.5-5.2-9.1-5.2-16.7v-35h-10v-13h10V8.5H271.4z"/>
			<path class="st2" d="M272.8,96.2c-6.6,0-11.8-1.9-15.4-5.5c-3.6-3.7-5.4-9.5-5.4-17.3V39.3h-10V24.4h10V7.6h20.3v16.8h11.6v14.8
				h-11.6v34c0,2.4,0.5,4.1,1.4,5.1c0.9,1,2.2,1.4,3.7,1.4c0.9,0,1.7,0,2.4-0.1c0.7-0.1,1.5-0.3,2.4-0.5l1-0.3L285,94l-0.7,0.2
				c-1.9,0.6-3.8,1.1-5.6,1.5C276.9,96,275,96.2,272.8,96.2z M243.8,37.4h10v35.9c0,7.3,1.6,12.7,4.9,16c3.2,3.3,8,5,14.1,5
				c2,0,3.9-0.2,5.6-0.5c1.5-0.3,3-0.7,4.6-1.2l-1.3-11.6c-0.6,0.1-1.1,0.2-1.5,0.3c-0.8,0.1-1.7,0.2-2.7,0.2c-2.1,0-3.8-0.7-5.1-2
				c-1.3-1.3-1.9-3.4-1.9-6.4V37.4h11.6V26.3h-11.6V9.5h-16.6v16.8h-10V37.4z"/>
		</g>
		<g>
			<path class="st2" d="M201.3,29.5c-20,0-34,15.9-35.2,34.6c-0.1,0.9-0.3,2.4-0.5,3.6c-1,10.4-5.8,18.2-14.6,18.2
				c-8.9,0-13.7-8.1-14.7-18.8c-0.1-0.9-0.1-1.8-0.2-2.8c0,0,0,0,0,0c0-0.2,0-0.5,0-0.7c0-0.1,0-0.2,0-0.2c0-0.1,0-0.1,0-0.2
				c0-12.5,6.1-22.7,14.8-22.7c5.6,0,9.7,4.2,12.1,9.3c1.9-4.7,4.9-10.1,8.5-13.7c-6.5-4.6-12.5-6.7-21.3-6.7
				c-18.9,0-34.3,15.4-34.3,34.3s15.4,34.3,34.3,34.3c19.1,0,35.2-15.2,35.2-34h0c0.1-1.2,0.3-3,0.5-4.2c1-10.4,5.8-18.2,14.6-18.2
				c8.9,0,13.7,8.1,14.7,18.8c0.1,0.9,0.1,1.8,0.2,2.8c0,0,0,0,0,0c0,0.2,0,0.5,0,0.7c0,0.1,0,0.2,0,0.2c0,0.1,0,0.1,0,0.2
				c0,12.5-6.1,22.7-14.8,22.7c-5.6,0-9.7-3.7-12.1-8.7c-1.9,4.7-4.5,9.5-8,13.1c5.6,5.3,12.2,6.6,20.9,6.6c18.9,0,34-15.1,34-34
				S219,29.5,201.3,29.5z"/>
			<path class="st2" d="M176.1,32.5c1.7-1.3,3.8-3.1,5.5-3.9c-0.9-8.8-6.6-14.6-12-15.9l-5,13.1C168.6,27.5,172.7,29.7,176.1,32.5z"
				/>
		</g>
	</g>
</g>
</svg>
